<svg xmlns="http://www.w3.org/2000/svg" width="24" height="24" viewBox="0 0 24 24">
    <defs>
        <linearGradient id="eu6ddyzuua" x1=".5" x2=".5" y2=".942" gradientUnits="objectBoundingBox">
            <stop offset="0" stop-color="#ef4e56"/>
            <stop offset="1" stop-color="#f55c42"/>
        </linearGradient>
        <linearGradient id="eypgdxfdjc" x1=".5" y1=".071" x2=".5" y2=".682" gradientUnits="objectBoundingBox">
            <stop offset="0" stop-color="#fff"/>
            <stop offset="1" stop-color="#f9e6f7"/>
        </linearGradient>
        <clipPath id="pdikh3bppb">
            <circle data-name="1383" cx="12" cy="12" r="12" style="fill:none"/>
        </clipPath>
    </defs>
    <circle data-name="1641" cx="12" cy="12" r="12" style="fill:url(#eu6ddyzuua)"/>
    <g data-name="8614">
        <g data-name="8437" style="clip-path:url(#pdikh3bppb)">
            <g data-name="8436">
                <path data-name="9852" d="M-4908.977 1470.668a1.636 1.636 0 0 1 .025-1.318l.075-.141.012-.019a2.815 2.815 0 0 0 .287-1.24 3.025 3.025 0 0 0-3.1-2.95 3.158 3.158 0 0 0-2.283.958 1.825 1.825 0 0 1-1.228.429 9.432 9.432 0 0 0-1.332-.1h-.07a9.42 9.42 0 0 0-1.331.1 1.826 1.826 0 0 1-1.229-.429 3.155 3.155 0 0 0-2.283-.958 3.025 3.025 0 0 0-3.1 2.95 2.822 2.822 0 0 0 .287 1.24l.012.019c.023.047.048.095.074.141a1.635 1.635 0 0 1 .025 1.318c-1.471 2.378-1.763 6.207-1.881 6.806l9.423 5h.07l9.423-5c-.113-.599-.405-4.428-1.876-6.806z" transform="translate(4928.554 -1455)" style="fill:#fff"/>
                <g data-name="8435">
                    <g data-name="8434" transform="translate(5.966 11.775)">
                        <circle data-name="1381" cx="1.063" cy="1.063" r="1.063" style="fill:#ef4e56"/>
                        <circle data-name="1382" cx="1.063" cy="1.063" r="1.063" transform="translate(9.925)" style="fill:#ef4e56"/>
                        <path data-name="9853" d="M-4910.575 1476.682a5.229 5.229 0 0 1-3.332-.873.413.413 0 0 1-.013-.584.413.413 0 0 1 .584-.013 4.609 4.609 0 0 0 2.761.643 4.609 4.609 0 0 0 2.761-.643.413.413 0 0 1 .584.013.412.412 0 0 1-.013.584 5.228 5.228 0 0 1-3.332.873z" transform="translate(4916.599 -1471.824)" style="fill:#ef4e56"/>
                    </g>
                </g>
            </g>
            <path data-name="9854" d="M-4925.349 1482.474a34.118 34.118 0 0 0-.664 3.737l9.423 5h.07l9.422-5a33.992 33.992 0 0 0-.664-3.737z" transform="translate(4928.554 -1463.737)" style="fill:url(#eypgdxfdjc)"/>
        </g>
    </g>
    <g data-name="1642" style="stroke:#ef4e56;stroke-width:2px;fill:none">
        <circle cx="12" cy="12" r="12" style="stroke:none"/>
        <circle cx="12" cy="12" r="11" style="fill:none"/>
    </g>
</svg>
