<svg width="180" height="52" viewBox="0 0 180 52" fill="none" xmlns="http://www.w3.org/2000/svg">
    <path d="M0 34.2135C2.75056 33.9216 9.40799 32.8916 9.77813 32.8587L20.1488 31.0689C20.2364 31.0537 20.3261 31.0566 20.4124 31.0774C20.5731 31.1147 24.3577 32.0126 26.2296 32.7469C26.2296 32.7469 35.8921 34.895 36.5289 35.0183L50.4273 28.6421L59.3094 25.143C59.3094 25.143 70.0662 18.8713 70.9122 18.5479C71.0591 18.4916 71.4092 18.842 71.4092 18.842L60.2112 25.8116C60.2112 25.8116 52.7486 29.4905 50.458 30.5524C42.8148 34.0946 36.0108 37.045 35.3243 36.5305L32.127 36.1249C32.0925 36.124 32.0582 36.1206 32.0243 36.1145C31.2466 35.9722 30.5338 35.6924 29.844 35.4219L25.7565 33.8192C24.1573 33.1923 14.6334 33.6228 14.6334 33.6228C14.6161 33.6261 10.6736 36.5497 10.6736 36.5497L0 38.9987V34.2135Z" fill="#97765B"/>
    <path d="M11.8087 35.1094C12.7459 33.4234 29.6625 23.2425 30.2795 21.7539C30.6785 20.7915 31.1146 17.9863 31.7321 17.1109C32.2124 16.4305 36.9531 11.85 37.5822 11.3138L37.39 11.1765C37.3927 11.1678 37.3924 11.1586 37.3893 11.1501C37.3863 11.1416 37.3805 11.1343 37.373 11.1294C37.3654 11.1244 37.3565 11.1221 37.3475 11.1226C37.3385 11.1232 37.3299 11.1267 37.323 11.1325L30.8054 16.6024L29.1834 21.2256L27.1173 22.9473L9.46921 33.05L11.8087 35.1094Z" fill="#97765B"/>
    <path d="M48.0386 22.6265C48.9137 21.9741 52.7487 19.6525 51.1593 15.5679C50.6813 15.4375 50.4454 15.5679 50.4454 15.5679C50.4454 15.5679 50.0176 15.2478 49.9923 15.1138C48.8336 15.6871 47.6814 16.3711 47.2025 17.5722C46.131 20.264 48.0386 22.6265 48.0386 22.6265Z" fill="#FFB8BF"/>
    <path d="M48.3635 22.1735C48.5041 21.9085 50.7343 19.2931 50.8724 19.1355C51.2186 18.7401 51.759 18.58 52.2772 18.4918C52.6429 18.4295 53.0126 18.3938 53.3835 18.385C53.8778 19.4444 53.6128 21.7924 49.788 22.8235L48.3635 22.1735Z" fill="#FFB8BF"/>
    <path d="M54.1134 23.3289C54.1719 23.2515 54.2413 23.1147 54.2183 23.0721C53.6889 22.1039 52.6372 21.4724 51.5385 21.3697C50.977 21.317 50.4676 21.4309 49.9369 21.5965C49.4171 21.7588 48.8281 21.8788 48.3635 22.1731C48.8649 22.593 49.3372 23.0579 49.8847 23.394C50.1858 23.5842 50.5171 23.7218 50.8644 23.8006C51.4029 23.9179 51.9683 23.9495 52.5177 23.9269C52.6693 23.9206 54.0554 23.9841 54.0604 23.8995C54.0653 23.8149 54.0969 23.4744 54.1134 23.3289Z" fill="#FFCECE"/>
    <path d="M48.0161 20.9428C47.89 20.6096 47.708 20.3004 47.4779 20.0284C47.1184 19.611 46.6857 19.2458 46.2329 18.9333C46.1082 18.8471 44.7979 18.1095 44.8078 18.0706C44.776 18.1983 44.715 18.3169 44.6296 18.4171C44.5343 18.4498 44.3679 18.5418 44.3602 18.5937C44.2009 19.6857 44.6622 20.8225 45.4767 21.5661C45.8935 21.9461 46.3685 22.1608 46.8927 22.3481C47.4057 22.5313 47.9483 22.7894 48.4974 22.833C48.3492 22.196 48.2514 21.5405 48.0161 20.9428Z" fill="#FFCECE"/>
    <path d="M50.4347 23.7016C50.3138 23.8438 50.0955 23.8356 49.9105 23.8114C49.3566 23.7373 48.5016 23.4841 47.675 23.1953C47.5767 23.1609 47.161 23.0102 47.0528 22.9696C46.0517 22.5925 45.2306 22.2169 45.2598 22.1334C45.3174 21.9687 45.4778 21.8286 45.6521 21.8067C48.4598 21.4525 50.5555 23.5594 50.4347 23.7016Z" fill="#FFCECE"/>
    <path d="M48.7602 20.9602C48.912 20.8084 48.912 20.5622 48.7602 20.4104C48.6083 20.2585 48.3621 20.2585 48.2103 20.4104C48.0585 20.5622 48.0585 20.8084 48.2103 20.9602C48.3621 21.1121 48.6083 21.1121 48.7602 20.9602Z" fill="#FFFFE5"/>
    <path d="M49.3223 21.255C49.3993 21.2552 49.4746 21.2325 49.5387 21.1899C49.6027 21.1472 49.6527 21.0865 49.6823 21.0155C49.7119 20.9444 49.7198 20.8662 49.7049 20.7907C49.69 20.7152 49.6531 20.6458 49.5988 20.5913C49.5444 20.5367 49.4752 20.4996 49.3997 20.4844C49.3242 20.4693 49.246 20.4768 49.1748 20.5062C49.1037 20.5355 49.0428 20.5853 49 20.6492C48.9571 20.7132 48.9342 20.7884 48.9341 20.8654C48.934 20.9685 48.9748 21.0674 49.0476 21.1405C49.1204 21.2135 49.2192 21.2547 49.3223 21.255Z" fill="#FFFFD6"/>
    <path d="M50.4594 21.1969C50.5363 21.197 50.6116 21.1743 50.6756 21.1316C50.7397 21.089 50.7896 21.0283 50.8192 20.9572C50.8487 20.8861 50.8566 20.8079 50.8417 20.7324C50.8267 20.6569 50.7898 20.5875 50.7354 20.5331C50.6811 20.4786 50.6118 20.4414 50.5364 20.4263C50.4609 20.4112 50.3827 20.4188 50.3115 20.4481C50.2404 20.4775 50.1796 20.5272 50.1367 20.5912C50.0939 20.6551 50.0709 20.7303 50.0708 20.8072C50.0707 20.8584 50.0807 20.909 50.1002 20.9562C50.1196 21.0035 50.1482 21.0464 50.1843 21.0826C50.2204 21.1188 50.2633 21.1475 50.3105 21.1671C50.3577 21.1867 50.4083 21.1969 50.4594 21.1969Z" fill="#FFFFE5"/>
    <path d="M74.115 18.2398C74.2122 18.3587 75.6494 17.4161 76.3142 16.2828C77.1237 14.903 75.74 13.1058 75.74 13.1058C75.74 13.1058 75.064 12.845 74.8084 13.0682L74.7455 13.0957C74.4294 12.828 73.9451 12.8664 73.5601 13.0314C73.158 13.2055 72.8153 13.493 72.574 13.8588C72.2756 14.3132 70.7497 16.751 74.115 18.2398Z" fill="#FFB8BF"/>
    <path d="M73.8668 18.5876C74.0832 18.0299 74.7422 17.2671 75.3375 17.0068C75.9328 16.7464 76.6146 16.6632 77.2807 16.6967C77.5927 16.7124 77.9068 16.7536 78.1968 16.8593C78.7199 17.0501 79.1397 17.4557 79.3094 17.9343C79.3925 18.1737 79.4157 18.4297 79.377 18.6801C79.3383 18.9305 79.2388 19.1676 79.0873 19.3707C79.0249 19.455 78.7028 19.4355 78.7028 19.4355C78.7028 19.4355 78.8676 19.8389 78.8308 19.9405C78.752 20.1654 78.531 20.3249 78.3028 20.446C77.5548 20.8375 76.6039 20.9128 75.7809 20.6473C74.958 20.3817 74.1092 19.4116 73.8091 18.6801L73.8668 18.5876Z" fill="#FFAEB3"/>
    <path d="M69.1749 14.7135C68.8179 15.4467 68.6532 15.6493 68.6532 15.6493C68.3632 15.8174 67.8124 16.2433 67.8124 16.2433C67.8124 16.2433 67.9497 18.1885 68.3357 18.6734C69.0629 19.5897 70.1538 19.6457 71.2296 19.5609C71.4345 19.5447 74.2004 18.8744 74.0771 18.6967C73.6537 18.0847 73.1367 17.5341 72.764 16.8899C71.7283 15.1026 69.531 13.9804 69.1749 14.7135Z" fill="#FFAEB3"/>
    <path d="M74.2317 18.2189C74.3965 18.8636 73.8124 19.9518 73.4458 20.565C73.034 21.2514 72.3557 22.0225 71.5454 22.0513C70.7727 22.0788 70.0044 21.7682 69.3383 21.4038C69.1806 21.3176 68.6007 21.0812 68.5894 20.8601C68.5859 20.7879 68.7652 20.4071 68.8767 20.4798C68.8767 20.4798 68.4717 20.2157 68.4373 20.1009C68.3637 19.8461 68.4585 19.56 68.5864 19.3068C69.0055 18.4773 69.8051 17.7965 70.7161 17.5299C72.169 17.106 74.2317 18.2189 74.2317 18.2189Z" fill="#FFB8BF"/>
    <path d="M74.2391 18.2398C74.1164 18.1429 72.9167 19.364 72.5205 20.6133C72.0375 22.1354 73.8072 23.6201 73.8072 23.6201C73.8072 23.6201 74.5313 23.7382 74.7323 23.4666L74.7872 23.426C75.1593 23.6248 75.6266 23.488 75.9679 23.2469C76.3244 22.994 76.5971 22.6401 76.7508 22.2309C76.94 21.7271 77.8876 19.0166 74.2391 18.2398Z" fill="#FFCECE"/>
    <path d="M75.6324 17.5112C75.6291 17.5799 75.6056 17.6462 75.5647 17.7016C75.5238 17.7569 75.4674 17.7989 75.4027 17.8222C75.3379 17.8455 75.2677 17.8491 75.2009 17.8325C75.1341 17.8159 75.0738 17.7799 75.0275 17.729C74.9812 17.678 74.951 17.6145 74.9408 17.5465C74.9306 17.4784 74.9408 17.4088 74.9701 17.3466C74.9995 17.2843 75.0466 17.2322 75.1056 17.1967C75.1646 17.1612 75.2328 17.1441 75.3015 17.1474C75.3936 17.1518 75.4802 17.1926 75.5422 17.2608C75.6043 17.329 75.6367 17.4191 75.6324 17.5112Z" fill="#FFFFD6"/>
    <path d="M72.9771 17.0103C72.9738 17.0791 72.9502 17.1454 72.9092 17.2007C72.8682 17.2561 72.8117 17.298 72.7469 17.3212C72.682 17.3444 72.6118 17.3479 72.545 17.3311C72.4782 17.3144 72.4179 17.2782 72.3717 17.2271C72.3254 17.176 72.2954 17.1124 72.2854 17.0443C72.2754 16.9761 72.2858 16.9066 72.3154 16.8444C72.3449 16.7822 72.3923 16.7301 72.4514 16.6949C72.5106 16.6596 72.5788 16.6427 72.6476 16.6462C72.7395 16.6509 72.8259 16.6919 72.8877 16.7601C72.9494 16.8284 72.9816 16.9184 72.9771 17.0103Z" fill="#FFFFD6"/>
    <path d="M74.4643 18.4204C74.461 18.4891 74.4374 18.5553 74.3965 18.6106C74.3556 18.666 74.2992 18.7079 74.2345 18.7312C74.1697 18.7545 74.0995 18.758 74.0328 18.7414C73.966 18.7248 73.9057 18.6888 73.8594 18.6379C73.8131 18.587 73.7829 18.5235 73.7727 18.4555C73.7625 18.3874 73.7727 18.3179 73.802 18.2557C73.8313 18.1934 73.8784 18.1412 73.9373 18.1058C73.9963 18.0703 74.0644 18.0531 74.1331 18.0563C74.1788 18.0584 74.2236 18.0696 74.2649 18.089C74.3063 18.1085 74.3434 18.1359 74.3741 18.1697C74.4049 18.2035 74.4287 18.2431 74.4441 18.2861C74.4596 18.3291 74.4665 18.3747 74.4643 18.4204Z" fill="#FFFFD6"/>
    <path d="M74.0184 16.5237C74.0151 16.5925 73.9915 16.6588 73.9506 16.7142C73.9096 16.7696 73.8531 16.8115 73.7883 16.8348C73.7235 16.8581 73.6532 16.8615 73.5864 16.8448C73.5196 16.8281 73.4592 16.7919 73.413 16.7409C73.3667 16.6898 73.3367 16.6262 73.3267 16.558C73.3166 16.4899 73.327 16.4203 73.3566 16.3581C73.3861 16.2959 73.4335 16.2438 73.4926 16.2085C73.5518 16.1733 73.6201 16.1563 73.6889 16.1599C73.7807 16.1647 73.8669 16.2057 73.9286 16.2739C73.9904 16.342 74.0226 16.4319 74.0184 16.5237Z" fill="#FFFFD6"/>
    <path d="M73.3593 17.9927C73.356 18.0614 73.3325 18.1276 73.2916 18.1829C73.2507 18.2382 73.1943 18.2802 73.1295 18.3035C73.0648 18.3267 72.9946 18.3303 72.9278 18.3137C72.8611 18.2971 72.8007 18.2611 72.7544 18.2102C72.7081 18.1593 72.678 18.0958 72.6678 18.0278C72.6576 17.9597 72.6677 17.8902 72.697 17.8279C72.7263 17.7657 72.7734 17.7135 72.8324 17.678C72.8913 17.6425 72.9594 17.6253 73.0282 17.6286C73.0738 17.6307 73.1186 17.6418 73.16 17.6612C73.2014 17.6807 73.2385 17.7081 73.2693 17.7419C73.3 17.7757 73.3238 17.8153 73.3393 17.8583C73.3547 17.9013 73.3615 17.947 73.3593 17.9927Z" fill="#FFFFD6"/>
    <path d="M74.1916 17.3885C74.1884 17.4573 74.1648 17.5236 74.1238 17.5789C74.0829 17.6343 74.0264 17.6763 73.9615 17.6996C73.8967 17.7228 73.8264 17.7263 73.7596 17.7096C73.6928 17.6928 73.6325 17.6567 73.5862 17.6056C73.54 17.5546 73.5099 17.4909 73.4999 17.4228C73.4899 17.3547 73.5003 17.2851 73.5298 17.2228C73.5594 17.1606 73.6067 17.1086 73.6659 17.0733C73.725 17.038 73.7933 17.0211 73.8621 17.0246C73.9539 17.0295 74.0401 17.0704 74.1019 17.1386C74.1636 17.2068 74.1959 17.2966 74.1916 17.3885Z" fill="#FFFFD6"/>
    <path d="M74.9195 16.7273C74.9163 16.796 74.8928 16.8623 74.8519 16.9176C74.811 16.973 74.7546 17.015 74.6899 17.0383C74.6251 17.0616 74.5549 17.0652 74.4881 17.0486C74.4213 17.032 74.3609 16.9959 74.3146 16.945C74.2683 16.8941 74.2382 16.8306 74.228 16.7625C74.2178 16.6945 74.228 16.6249 74.2573 16.5627C74.2866 16.5004 74.3338 16.4482 74.3928 16.4128C74.4517 16.3773 74.5199 16.3601 74.5887 16.3634C74.6808 16.3678 74.7674 16.4086 74.8294 16.4769C74.8915 16.5451 74.9239 16.6352 74.9195 16.7273Z" fill="#FFFFD6"/>
    <path d="M9.80284 22.8788C9.94178 22.8137 9.38189 21.1884 8.44801 20.2649C7.31039 19.1391 5.22763 20.0384 5.22763 20.0384C5.22763 20.0384 4.80833 20.6293 4.96155 20.9322L4.97336 21C4.63589 21.2403 4.55406 21.7192 4.61914 22.133C4.68825 22.5654 4.88197 22.9683 5.17655 23.2923C5.54286 23.6935 7.53006 25.7732 9.80284 22.8788Z" fill="#FFB8BF"/>
    <path d="M10.0774 23.2048C9.59004 22.8577 9.0134 22.0312 8.90769 21.3897C8.80197 20.7483 8.88956 20.0676 9.08617 19.4303C9.17843 19.1318 9.29568 18.8374 9.47059 18.5826C9.78418 18.1227 10.2809 17.8157 10.7864 17.769C11.0389 17.7475 11.2927 17.7882 11.5258 17.8874C11.7589 17.9866 11.9642 18.1414 12.1237 18.3382C12.1901 18.4206 12.0918 18.7273 12.0918 18.7273C12.0918 18.7273 12.5232 18.6683 12.6135 18.7273C12.8121 18.8594 12.9137 19.1131 12.9733 19.3636C13.1685 20.1854 13.0079 21.1253 12.5468 21.8574C12.0858 22.5894 10.9366 23.1729 10.1543 23.2836L10.0774 23.2048Z" fill="#FFAEB3"/>
    <path d="M5.16723 26.7973C5.79 27.3234 5.94542 27.5345 5.94542 27.5345C6.03659 27.8569 6.31392 28.4956 6.31392 28.4956C6.31392 28.4956 8.2333 28.8407 8.79786 28.5876C9.86519 28.1087 10.1884 27.065 10.3713 26.0015C10.4059 25.7991 10.4388 22.9536 10.2356 23.0291C9.53815 23.2886 8.87721 23.6538 8.16108 23.8564C6.17361 24.4179 4.54447 26.2711 5.16723 26.7973Z" fill="#FFAEB3"/>
    <path d="M9.81082 22.7603C10.4762 22.7603 11.387 23.5936 11.8911 24.1003C12.4559 24.6676 13.0348 25.516 12.8629 26.3085C12.6981 27.0639 12.2091 27.732 11.6918 28.2877C11.5693 28.4193 11.1975 28.9231 10.9803 28.8795C10.9092 28.8652 10.5843 28.5978 10.6824 28.5074C10.6824 28.5074 10.3254 28.835 10.2071 28.8388C9.94207 28.8471 9.68808 28.6848 9.47445 28.4986C8.7737 27.8879 8.31019 26.9453 8.27696 25.9966C8.22397 24.4852 9.81082 22.7603 9.81082 22.7603Z" fill="#FFB8BF"/>
    <path d="M9.8336 22.7587C9.70948 22.8537 10.5972 24.3172 11.7107 25.0103C13.0666 25.8536 14.9415 24.5042 14.9415 24.5042C14.9415 24.5042 15.2348 23.8315 15.0209 23.5706L14.9953 23.5069C15.2795 23.1956 15.2622 22.7087 15.1126 22.3185C14.9556 21.9109 14.6803 21.5597 14.322 21.3099C13.8778 20.9994 11.4853 19.4139 9.8336 22.7587Z" fill="#FFCECE"/>
    <path d="M9.59154 21.8282C9.73921 21.7053 9.75925 21.4859 9.63631 21.3383C9.51337 21.1906 9.294 21.1706 9.14633 21.2935C8.99867 21.4164 8.97863 21.6358 9.10157 21.7835C9.22451 21.9311 9.44388 21.9512 9.59154 21.8282Z" fill="#FFFFD6"/>
    <path d="M8.42496 24.2987C8.58369 24.1904 8.62459 23.9739 8.51631 23.8152C8.40804 23.6565 8.19158 23.6156 8.03286 23.7239C7.87413 23.8321 7.83323 24.0486 7.94151 24.2073C8.04978 24.3661 8.26623 24.407 8.42496 24.2987Z" fill="#FFFFD6"/>
    <path d="M10.3081 22.9444C10.3235 22.7528 10.1808 22.5851 9.98923 22.5697C9.7977 22.5543 9.62995 22.697 9.61454 22.8886C9.59913 23.0801 9.7419 23.2478 9.93342 23.2633C10.1249 23.2787 10.2927 23.1359 10.3081 22.9444Z" fill="#FFFFD6"/>
    <path d="M8.11577 22.5509C8.18157 22.571 8.23994 22.6102 8.28349 22.6634C8.32704 22.7167 8.35381 22.7817 8.36043 22.8502C8.36704 22.9186 8.35321 22.9876 8.32066 23.0482C8.28812 23.1088 8.23833 23.1584 8.17759 23.1907C8.11685 23.2231 8.0479 23.2367 7.97944 23.2298C7.91098 23.2229 7.84609 23.1959 7.79297 23.1522C7.73986 23.1084 7.70091 23.0499 7.68104 22.9841C7.66118 22.9182 7.66129 22.8479 7.68137 22.7821C7.69468 22.7384 7.71647 22.6977 7.74551 22.6624C7.77456 22.6271 7.81027 22.5979 7.85062 22.5764C7.89097 22.5549 7.93516 22.5416 7.98066 22.5372C8.02615 22.5329 8.07207 22.5375 8.11577 22.5509Z" fill="#FFFFD6"/>
    <path d="M9.41842 24.1993C9.59382 24.1208 9.67244 23.9151 9.59402 23.7396C9.51559 23.5642 9.30982 23.4856 9.13441 23.564C8.959 23.6425 8.88038 23.8483 8.95881 24.0237C9.03723 24.1991 9.24301 24.2777 9.41842 24.1993Z" fill="#FFFFD6"/>
    <path d="M8.99718 22.5947C9.06299 22.6149 9.12135 22.6541 9.16487 22.7074C9.2084 22.7607 9.23514 22.8257 9.24171 22.8942C9.24828 22.9627 9.23438 23.0316 9.20178 23.0922C9.16917 23.1529 9.11933 23.2024 9.05855 23.2347C8.99776 23.267 8.92877 23.2805 8.86031 23.2736C8.79184 23.2666 8.72696 23.2395 8.67389 23.1957C8.62082 23.1519 8.58194 23.0933 8.56216 23.0274C8.54238 22.9615 8.5426 22.8912 8.56278 22.8254C8.58989 22.7373 8.65085 22.6635 8.73229 22.6203C8.81373 22.577 8.90899 22.5678 8.99718 22.5947Z" fill="#FFFFD6"/>
    <path d="M35.772 51.797C35.6537 51.7959 35.5368 51.7716 35.428 51.7253C35.3192 51.679 35.2205 51.6115 35.1377 51.527C35.0549 51.4426 34.9895 51.3428 34.9453 51.2331C34.9011 51.1234 34.8789 51.006 34.8801 50.8877V39.2875H31.9094C31.3295 39.3255 30.7529 39.1735 30.2672 38.8544C29.7814 38.5354 29.4129 38.0668 29.2174 37.5194C29.0128 36.9184 28.9793 36.272 29.1206 35.653C29.2619 35.034 29.5725 34.4667 30.0177 34.014C30.0512 33.9815 30.0873 33.9516 30.1257 33.9248L55.169 16.4759C55.2654 16.4081 55.3744 16.3606 55.4896 16.3358C55.6048 16.311 55.7237 16.3097 55.8394 16.3318C55.9551 16.3539 56.0652 16.399 56.1631 16.4645C56.261 16.53 56.3447 16.6145 56.4093 16.7131C56.5431 16.9124 56.5936 17.1561 56.5501 17.3922C56.5066 17.6283 56.3725 17.8381 56.1764 17.9766L31.2083 35.3747C31.0262 35.5851 30.9025 35.8396 30.8495 36.1127C30.7965 36.3859 30.8161 36.6681 30.9064 36.9313C30.9819 37.1082 31.1122 37.256 31.2781 37.3533C31.4439 37.4506 31.6366 37.492 31.8278 37.4716H35.7739C36.0126 37.4741 36.2406 37.5712 36.4078 37.7416C36.575 37.912 36.6678 38.1416 36.6658 38.3803V50.8902C36.6675 51.129 36.5743 51.3588 36.4067 51.5289C36.2391 51.6989 36.0108 51.7952 35.772 51.797Z" fill="white"/>
    <path d="M75.5384 51.7963C75.4201 51.7952 75.3032 51.7709 75.1943 51.7246C75.0855 51.6783 74.9869 51.6108 74.904 51.5263C74.8212 51.4419 74.7558 51.3421 74.7116 51.2324C74.6674 51.1227 74.6453 51.0053 74.6465 50.887V38.3771C74.6443 38.1384 74.737 37.9086 74.9043 37.7381C75.0715 37.5677 75.2996 37.4708 75.5384 37.4685H79.4926C79.6822 37.487 79.8728 37.4444 80.0367 37.3471C80.2005 37.2498 80.3289 37.1027 80.4033 36.9272C80.4916 36.6636 80.5101 36.3815 80.457 36.1086C80.4038 35.8357 80.2809 35.5813 80.1001 35.37L55.1333 17.9723C54.9374 17.8336 54.8034 17.6239 54.7599 17.3878C54.7164 17.1518 54.7668 16.908 54.9005 16.7087C54.965 16.6101 55.0487 16.5256 55.1466 16.4601C55.2445 16.3946 55.3546 16.3496 55.4703 16.3274C55.586 16.3053 55.705 16.3066 55.8201 16.3314C55.9353 16.3562 56.0443 16.4037 56.1407 16.4715L81.1841 33.9201C81.2223 33.9471 81.2584 33.9769 81.2921 34.0093C81.7374 34.4621 82.0481 35.0298 82.1895 35.6489C82.3309 36.268 82.2975 36.9141 82.093 37.5153C81.8974 38.0627 81.5287 38.5316 81.0429 38.8506C80.557 39.1697 79.9803 39.3218 79.4003 39.2837H76.4296V50.8839C76.4312 51.0024 76.4094 51.1199 76.3654 51.23C76.3214 51.34 76.2562 51.4403 76.1734 51.5251C76.0906 51.6099 75.9919 51.6774 75.8829 51.724C75.7739 51.7705 75.6568 51.7951 75.5384 51.7963Z" fill="white"/>
    <path d="M46.7515 43.4288C47.8046 43.4288 48.6584 45.4351 48.6584 44.3619C48.6584 43.2887 47.8046 42.4187 46.7515 42.4187C45.6984 42.4187 44.8447 43.2887 44.8447 44.3619C44.8447 45.4351 45.6984 43.4288 46.7515 43.4288Z" fill="white"/>
    <path d="M64.5562 43.4998C65.6093 43.4998 66.463 45.4351 66.463 44.3619C66.463 43.2887 65.6093 42.4187 64.5562 42.4187C63.5031 42.4187 62.6494 43.2887 62.6494 44.3619C62.6494 45.4351 63.5031 43.4998 64.5562 43.4998Z" fill="white"/>
    <path d="M55.6512 51.7969C52.9736 51.7969 50.6827 51.1849 49.674 50.2001C49.532 50.0603 49.4502 49.8704 49.446 49.6712C49.4418 49.4719 49.5155 49.2788 49.6514 49.133C49.718 49.0614 49.7982 49.0042 49.8874 48.9641C49.9766 48.9241 50.0729 48.9022 50.1706 48.9001C50.2683 48.8979 50.3655 48.9155 50.4563 48.9516C50.5472 48.9876 50.6299 49.0415 50.6996 49.11C51.2802 49.6749 53.0778 50.2869 55.6518 50.2869C58.2258 50.2869 60.0228 49.6762 60.604 49.11C60.6737 49.0415 60.7564 48.9875 60.8473 48.9516C60.9382 48.9156 61.0353 48.8982 61.133 48.9004C61.2307 48.9026 61.3269 48.9242 61.4161 48.9641C61.5053 49.0041 61.5855 49.0615 61.6522 49.133C61.7881 49.2788 61.8618 49.4719 61.8576 49.6712C61.8534 49.8704 61.7716 50.0603 61.6296 50.2001C60.619 51.1849 58.3262 51.7969 55.6512 51.7969Z" fill="white"/>
    <path d="M70.4174 51.7944C70.21 51.7929 70.0095 51.7194 69.8502 51.5867C69.6909 51.4539 69.5826 51.2703 69.5436 51.0666C69.3305 50.0262 68.9702 49.0212 68.4735 48.0825C68.4598 48.0558 68.4473 48.0287 68.4359 48.0009C68.2317 47.5012 68.132 46.9651 68.1428 46.4254C68.1536 45.8857 68.2747 45.3538 68.4986 44.8627C68.5091 44.8397 68.5204 44.8173 68.5325 44.7955C68.5712 44.7252 68.608 44.6539 68.643 44.5816L68.6555 44.5537C68.9355 43.9709 69.0805 43.3327 69.0798 42.6861C69.0539 41.4744 68.549 40.3222 67.6755 39.4819C66.8021 38.6417 65.6313 38.1817 64.4195 38.2027C63.7743 38.2011 63.1355 38.3305 62.542 38.5837C61.9485 38.8368 61.4127 39.2082 60.9674 39.675C60.9517 39.6915 60.9353 39.7076 60.9184 39.7228C60.137 40.4062 59.1259 40.7687 58.0883 40.7372C58.0547 40.736 58.0212 40.7327 57.9879 40.7277C57.2301 40.6126 56.4648 40.5527 55.6982 40.5488H55.6072C54.8423 40.5529 54.0788 40.6128 53.3225 40.7277C53.2889 40.7329 53.2549 40.7361 53.2209 40.7372C52.176 40.7694 51.1584 40.4008 50.3764 39.7072L50.3437 39.6744C49.8982 39.2078 49.3624 38.837 48.7689 38.584C48.1755 38.331 47.5368 38.2012 46.8916 38.2027C45.6798 38.1817 44.509 38.6417 43.6355 39.4819C42.7621 40.3222 42.2572 41.4744 42.2313 42.6861C42.2306 43.3327 42.3756 43.9709 42.6556 44.5537C42.6944 44.6359 42.7356 44.717 42.7792 44.7968C42.7914 44.8171 42.8025 44.8381 42.8125 44.8596C43.0364 45.3508 43.1575 45.8826 43.1683 46.4223C43.1791 46.962 43.0794 47.4981 42.8753 47.9979C42.8639 48.0256 42.8513 48.0527 42.8376 48.0794C42.3408 49.0181 41.9804 50.0227 41.7674 51.0632C41.7456 51.1791 41.7009 51.2895 41.6361 51.3881C41.5713 51.4866 41.4876 51.5715 41.3898 51.6375C41.2921 51.7035 41.1822 51.7494 41.0665 51.7727C40.9509 51.796 40.8318 51.7963 40.7161 51.7733C40.4821 51.7225 40.2776 51.5811 40.147 51.3804C40.0164 51.1797 39.9704 50.9358 40.0188 50.7013C40.2627 49.5055 40.6737 48.3498 41.2396 47.2685C41.4432 46.7466 41.4319 46.1651 41.2082 45.6515C41.1684 45.5785 41.1301 45.5046 41.0933 45.4299C41.0643 45.3811 41.04 45.3298 41.0205 45.2764C40.6425 44.4639 40.4473 43.5782 40.4487 42.6821C40.4698 40.9925 41.1601 39.3804 42.3682 38.1991C43.5764 37.0177 45.2038 36.3635 46.8935 36.3804C47.7723 36.3801 48.6422 36.5571 49.4511 36.9008C50.2599 37.2445 50.9911 37.7479 51.6009 38.3808C52.0186 38.7206 52.5387 38.9094 53.0771 38.9168H53.1135C53.9373 38.7949 54.7688 38.7321 55.6016 38.7286H55.7026C56.5368 38.7319 57.3698 38.7947 58.195 38.9168H58.2315C58.7693 38.9082 59.2888 38.7197 59.707 38.3814C60.3168 37.7484 61.048 37.2453 61.8568 36.9014C62.6657 36.5576 63.5356 36.3803 64.4145 36.3804C66.1041 36.3635 67.7315 37.0177 68.9397 38.1991C70.1479 39.3804 70.8382 40.9925 70.8592 42.6821C70.8607 43.5693 70.6694 44.4464 70.2987 45.2525C70.2771 45.315 70.2487 45.3751 70.214 45.4315C70.1774 45.506 70.1392 45.5794 70.0991 45.6521C69.876 46.1657 69.8649 46.7468 70.0684 47.2685C70.6343 48.3498 71.0452 49.5055 71.2892 50.7013C71.3376 50.9358 71.2915 51.1797 71.161 51.3804C71.0304 51.5811 70.8259 51.7225 70.5919 51.7733C70.5346 51.7863 70.4761 51.7933 70.4174 51.7944Z" fill="white"/>
    <path d="M106.343 41.6714C106.279 41.5477 106.189 41.4399 106.078 41.3556C105.968 41.2712 105.84 41.2125 105.704 41.184C105.462 41.1341 105.215 41.117 104.969 41.133C104.71 41.1485 104.453 41.1846 104.2 41.2402C103.983 41.287 103.769 41.3455 103.559 41.4155L102.756 41.6657C102.422 41.7701 101.991 41.8752 101.477 41.9796C100.847 42.1154 100.21 42.2168 99.569 42.2828C98.6979 42.3716 97.8226 42.4128 96.947 42.4063C95.3883 42.4115 93.8319 42.2834 92.295 42.0232C91.6932 41.9188 91.1806 41.8129 90.7707 41.7085C90.3609 41.6042 90.0687 41.5224 89.8976 41.4648C89.5961 41.3636 89.2875 41.2844 88.9744 41.2284C88.657 41.1456 88.3245 41.1399 88.0044 41.2117C87.7564 41.2912 87.5457 41.4583 87.4117 41.6816C87.2976 41.8936 87.2289 42.1272 87.2099 42.3672C87.191 42.6072 87.2221 42.8483 87.3015 43.0756C87.3746 43.2918 87.4957 43.4885 87.6558 43.6511C87.8158 43.8138 88.0107 43.9381 88.2256 44.0147C88.6755 44.2024 89.1408 44.3509 89.6163 44.4581C90.214 44.6251 90.9076 44.7793 91.6773 44.9171C92.4469 45.0548 93.2908 45.1676 94.1999 45.2595C94.5338 45.2979 94.8677 45.3263 95.2016 45.343V50.852C95.1871 50.9792 95.2016 51.1082 95.2439 51.229C95.2863 51.3498 95.3554 51.4595 95.4461 51.5498C95.5368 51.6401 95.6468 51.7089 95.7678 51.7507C95.8888 51.7925 96.0177 51.8061 96.1449 51.7911H96.6131C97.831 51.7911 98.4496 50.7638 98.4496 48.7378V45.3646C98.8614 45.3362 99.269 45.3022 99.6724 45.2627C100.505 45.1661 101.334 45.0444 102.158 44.8979C102.828 44.7926 103.491 44.65 104.144 44.4712C104.585 44.3564 105.016 44.2068 105.432 44.0232C105.66 43.9504 105.869 43.8258 106.041 43.6597C106.213 43.4935 106.345 43.2902 106.426 43.065C106.577 42.6161 106.551 42.1266 106.355 41.6959L106.343 41.6714Z" fill="white"/>
    <path d="M91.7626 39.4688C92.4377 39.9353 93.187 40.2838 93.9788 40.4996C94.9091 40.7567 95.871 40.8823 96.8362 40.8722C97.8369 40.8861 98.8343 40.7524 99.7961 40.4756C100.59 40.2495 101.337 39.8844 102.003 39.3971C102.579 38.9716 103.052 38.423 103.39 37.7916C103.707 37.19 103.872 36.5201 103.871 35.8401C103.874 35.1647 103.699 34.5003 103.364 33.9142C103.008 33.3054 102.527 32.7794 101.953 32.3702C101.275 31.9028 100.521 31.5538 99.726 31.339C98.7846 31.0816 97.812 30.9565 96.8362 30.9669C95.8263 30.9676 94.8211 31.1042 93.8478 31.3733C93.0494 31.5918 92.2973 31.9538 91.6282 32.4412C91.0508 32.868 90.5795 33.4221 90.2508 34.0605C89.9388 34.682 89.7781 35.3684 89.7817 36.0638C89.7832 36.7266 89.9628 37.3766 90.3018 37.9461C90.6667 38.558 91.1663 39.0789 91.7626 39.4688ZM93.2592 35.0905C93.4566 34.7939 93.7164 34.544 94.0205 34.3585C94.3984 34.1259 94.8085 33.9503 95.2376 33.8376C95.7511 33.7012 96.2807 33.635 96.812 33.6407C97.3285 33.6368 97.8432 33.7029 98.342 33.8376C98.7771 33.9534 99.1943 34.1287 99.5816 34.3585C99.891 34.5492 100.159 34.8 100.37 35.0962C100.545 35.3393 100.641 35.631 100.644 35.9309C100.642 36.231 100.546 36.5228 100.37 36.7657C100.16 37.0612 99.8932 37.3119 99.5849 37.5022C99.1968 37.7333 98.7785 37.9094 98.342 38.0256C97.3238 38.2876 96.2558 38.2876 95.2376 38.0256C94.8087 37.9121 94.3987 37.7366 94.0205 37.5047C93.7163 37.3188 93.4565 37.0687 93.2592 36.7718C93.0933 36.5231 93.0041 36.2312 93.003 35.9322C93.0039 35.6326 93.093 35.3397 93.2592 35.0905Z" fill="white"/>
    <path d="M124.323 50.6899C124.309 50.817 124.323 50.9461 124.365 51.0669C124.408 51.1877 124.477 51.2973 124.567 51.3876C124.658 51.478 124.768 51.5468 124.889 51.5886C125.01 51.6304 125.139 51.644 125.266 51.6289H125.69C126.908 51.6289 127.526 50.6016 127.526 48.5757V30.8088H124.323V50.6899Z" fill="white"/>
    <path d="M122.432 43.3618H115.112C114.882 43.3618 114.805 43.2834 114.805 43.0488V40.2808H119.553C120.874 40.2808 121.544 39.0285 121.544 36.5677V33.1794C121.565 32.9958 121.543 32.8101 121.481 32.6361C121.419 32.4621 121.318 32.3044 121.187 32.1747C121.055 32.045 120.896 31.9468 120.721 31.8873C120.547 31.8279 120.36 31.8089 120.177 31.8315H111.622V34.5501H118.362V37.0902C118.362 37.5619 118.215 37.5618 118.166 37.5618H111.622V43.5721C111.581 43.9119 111.619 44.2565 111.733 44.5793C111.846 44.9021 112.032 45.1945 112.276 45.4344C112.52 45.6743 112.815 45.8551 113.14 45.9631C113.465 46.071 113.81 46.1033 114.149 46.0572H121.959C122.511 46.0572 123.17 45.7477 123.17 44.2777C123.174 43.4805 122.709 43.3618 122.432 43.3618Z" fill="white"/>
    <path d="M142.919 31.8317H134.5V34.5503H141.058C141.035 36.3991 140.384 38.1853 139.213 39.6158C138.584 40.3759 137.876 41.0668 137.102 41.6774C136.31 42.2903 135.438 42.791 134.51 43.1651C134.099 43.4156 133.709 43.922 134.19 44.8786C134.543 45.5373 134.936 45.7358 135.275 45.7358C135.429 45.7336 135.58 45.6978 135.718 45.6306C138.168 44.6687 140.322 43.078 141.962 41.0188C143.512 39.0024 144.331 36.5184 144.282 33.9752V33.1788C144.302 32.9956 144.28 32.8106 144.218 32.6371C144.157 32.4635 144.056 32.306 143.925 32.1765C143.794 32.047 143.636 31.9489 143.462 31.8892C143.287 31.8294 143.102 31.8098 142.919 31.8317Z" fill="white"/>
    <path d="M154.957 37.2839C154.854 36.9166 154.611 36.6048 154.279 36.417C153.947 36.2291 153.554 36.1809 153.187 36.2824C152.144 36.7059 151.034 36.9368 149.909 36.9643V30.8081H146.729V50.6899C146.714 50.8171 146.729 50.9461 146.771 51.067C146.813 51.1878 146.882 51.2974 146.973 51.3877C147.064 51.4781 147.174 51.5469 147.295 51.5887C147.416 51.6305 147.545 51.6441 147.672 51.629H148.051C149.284 51.629 149.909 50.6017 149.909 48.5758V40.2683C151.391 40.2955 152.854 39.9229 154.143 39.1898C154.446 38.9828 154.684 38.6935 154.828 38.3559C154.972 38.0182 155.017 37.6461 154.957 37.2839Z" fill="white"/>
    <path d="M8.76323 22.1711C8.82477 21.9891 8.7271 21.7916 8.54508 21.7301C8.36306 21.6686 8.16561 21.7662 8.10407 21.9483C8.04253 22.1303 8.1402 22.3277 8.32222 22.3893C8.50425 22.4508 8.70169 22.3531 8.76323 22.1711Z" fill="#FFFFD6"/>
    <path d="M51.6209 26.9953C51.7181 27.1139 53.1553 26.1715 53.8201 25.038C54.6296 23.6585 53.2459 21.861 53.2459 21.861C53.2459 21.861 52.5699 21.6004 52.3142 21.8237L52.2514 21.8511C51.935 21.5831 51.4509 21.6219 51.066 21.7869C50.6633 21.9604 50.3203 22.2479 50.0791 22.614C49.7814 23.0684 48.2555 25.507 51.6209 26.9953Z" fill="#FFB8BF"/>
    <path d="M51.3727 27.3437C51.5891 26.7857 52.2481 26.0232 52.8434 25.7629C53.4387 25.5025 54.1205 25.4193 54.7867 25.4528C55.0983 25.4685 55.4127 25.5097 55.7027 25.6154C56.2258 25.806 56.6456 26.2118 56.8153 26.6904C56.8984 26.9298 56.9215 27.1858 56.8828 27.4362C56.8441 27.6866 56.7446 27.9237 56.5932 28.1268C56.5306 28.2111 56.2088 28.1916 56.2088 28.1916C56.2088 28.1916 56.3735 28.595 56.337 28.6963C56.2582 28.9215 56.0371 29.0824 55.809 29.2018C55.0607 29.5937 54.1101 29.6686 53.2871 29.4031C52.4642 29.1376 51.6154 28.1674 51.3153 27.4362L51.3727 27.3437Z" fill="#FFAEB3"/>
    <path d="M46.6802 23.4695C46.3233 24.2027 46.1585 24.4051 46.1585 24.4051C45.8688 24.5731 45.318 24.9993 45.318 24.9993C45.318 24.9993 45.4567 26.9445 45.8414 27.4291C46.5685 28.3454 47.6594 28.4017 48.7353 28.3166C48.9398 28.3004 51.706 27.6301 51.5828 27.4527C51.1593 26.8407 50.6423 26.2901 50.2697 25.6459C49.2339 23.8584 47.0372 22.7361 46.6802 23.4695Z" fill="#FFAEB3"/>
    <path d="M51.7376 26.9747C51.9024 27.6197 51.3183 28.7077 50.9517 29.3211C50.5398 30.0076 49.8616 30.7783 49.051 30.8072C48.2786 30.8346 47.5103 30.5243 46.8441 30.16C46.6865 30.0737 46.1066 29.837 46.0953 29.6163C46.0918 29.5441 46.2708 29.1632 46.3826 29.2357C46.3826 29.2357 45.9773 28.9718 45.9432 28.857C45.8696 28.6022 45.9644 28.3161 46.0923 28.0629C46.5113 27.2334 47.3109 26.5527 48.222 26.2858C49.6749 25.8618 51.7376 26.9747 51.7376 26.9747Z" fill="#FFB8BF"/>
    <path d="M51.7447 26.9963C51.6223 26.8997 50.4226 28.1222 50.0261 29.3702C49.5434 30.8922 51.3131 32.3769 51.3131 32.3769C51.3131 32.3769 52.0372 32.495 52.2379 32.2234L52.2928 32.1828C52.6646 32.3816 53.1322 32.2446 53.4736 32.0038C53.83 31.7508 54.1026 31.3969 54.2564 30.9878C54.4467 30.482 55.3935 27.7726 51.7447 26.9963Z" fill="#FFCECE"/>
    <path d="M53.1383 26.2674C53.135 26.3362 53.1114 26.4025 53.0705 26.4578C53.0295 26.5132 52.973 26.5552 52.9082 26.5785C52.8434 26.6017 52.7731 26.6052 52.7063 26.5885C52.6395 26.5718 52.5791 26.5356 52.5329 26.4845C52.4866 26.4335 52.4566 26.3698 52.4466 26.3017C52.4365 26.2336 52.4469 26.164 52.4765 26.1017C52.506 26.0395 52.5534 25.9875 52.6125 25.9522C52.6717 25.9169 52.74 25.9 52.8088 25.9035C52.9006 25.9083 52.9869 25.9493 53.0486 26.0174C53.1104 26.0856 53.1426 26.1755 53.1383 26.2674Z" fill="#FFFFD6"/>
    <path d="M50.483 25.7662C50.4797 25.835 50.4561 25.9012 50.4152 25.9566C50.3742 26.012 50.3178 26.054 50.2529 26.0772C50.1881 26.1005 50.1178 26.104 50.051 26.0873C49.9842 26.0705 49.9238 26.0344 49.8776 25.9833C49.8314 25.9322 49.8013 25.8686 49.7913 25.8005C49.7812 25.7323 49.7917 25.6627 49.8212 25.6005C49.8507 25.5383 49.8981 25.4863 49.9572 25.451C50.0164 25.4157 50.0847 25.3988 50.1535 25.4023C50.2453 25.4071 50.3316 25.448 50.3933 25.5162C50.4551 25.5844 50.4873 25.6743 50.483 25.7662Z" fill="#FFFFD6"/>
    <path d="M51.9699 27.1765C51.9666 27.2452 51.943 27.3115 51.9021 27.3668C51.8612 27.4221 51.8048 27.4641 51.7401 27.4873C51.6753 27.5106 51.6051 27.5141 51.5383 27.4975C51.4716 27.4809 51.4112 27.4448 51.3649 27.3939C51.3187 27.343 51.2885 27.2795 51.2783 27.2114C51.2682 27.1434 51.2784 27.0738 51.3077 27.0116C51.3371 26.9493 51.3842 26.8972 51.4432 26.8617C51.5021 26.8263 51.5703 26.8091 51.639 26.8124C51.7312 26.8168 51.8178 26.8577 51.8799 26.9259C51.9419 26.9942 51.9743 27.0844 51.9699 27.1765Z" fill="#FFFFD6"/>
    <path d="M51.5242 25.28C51.521 25.3487 51.4974 25.4149 51.4565 25.4703C51.4156 25.5256 51.3592 25.5675 51.2945 25.5908C51.2297 25.6141 51.1595 25.6177 51.0928 25.6011C51.026 25.5844 50.9656 25.5484 50.9194 25.4975C50.8731 25.4466 50.8429 25.3831 50.8327 25.3151C50.8225 25.2471 50.8327 25.1775 50.8619 25.1153C50.8912 25.053 50.9383 25.0009 50.9973 24.9654C51.0562 24.9299 51.1244 24.9127 51.1931 24.9159C51.2388 24.918 51.2836 24.9291 51.3249 24.9486C51.3663 24.968 51.4034 24.9954 51.4342 25.0293C51.465 25.0631 51.4887 25.1026 51.5042 25.1457C51.5196 25.1887 51.5265 25.2344 51.5242 25.28Z" fill="#FFFFD6"/>
    <path d="M50.8346 26.8791C50.9151 26.7046 50.8389 26.4979 50.6644 26.4174C50.4899 26.337 50.2833 26.4132 50.2028 26.5876C50.1223 26.7621 50.1985 26.9688 50.373 27.0493C50.5475 27.1297 50.7541 27.0535 50.8346 26.8791Z" fill="#FFFFD6"/>
    <path d="M51.6975 26.1455C51.6942 26.2142 51.6707 26.2804 51.6298 26.3357C51.5889 26.3911 51.5325 26.433 51.4677 26.4563C51.403 26.4796 51.3328 26.4831 51.266 26.4665C51.1993 26.4499 51.1389 26.4139 51.0926 26.363C51.0463 26.3121 51.0162 26.2486 51.006 26.1806C50.9957 26.1125 51.0059 26.043 51.0352 25.9808C51.0645 25.9185 51.1116 25.8663 51.1706 25.8309C51.2295 25.7954 51.2976 25.7782 51.3664 25.7814C51.412 25.7835 51.4568 25.7946 51.4982 25.8141C51.5396 25.8335 51.5767 25.8609 51.6075 25.8947C51.6382 25.9286 51.662 25.9681 51.6775 26.0112C51.6929 26.0542 51.6997 26.0998 51.6975 26.1455Z" fill="#FFFFD6"/>
    <path d="M52.4254 25.4834C52.4222 25.5521 52.3987 25.6183 52.3578 25.6737C52.3169 25.729 52.2606 25.771 52.1958 25.7944C52.1311 25.8177 52.0609 25.8213 51.9941 25.8047C51.9273 25.7881 51.8669 25.7521 51.8206 25.7012C51.7743 25.6503 51.7441 25.5869 51.7339 25.5188C51.7236 25.4508 51.7338 25.3812 51.7631 25.3189C51.7924 25.2567 51.8395 25.2045 51.8984 25.169C51.9574 25.1335 52.0256 25.1163 52.0943 25.1195C52.1399 25.1216 52.1847 25.1327 52.2261 25.1522C52.2674 25.1716 52.3045 25.199 52.3353 25.2328C52.366 25.2666 52.3898 25.3061 52.4053 25.3491C52.4208 25.3921 52.4276 25.4377 52.4254 25.4834Z" fill="#FFFFD6"/>
    <path d="M30.3787 14.0512C30.1315 13.9548 27.0031 13.7492 26.895 12.1599C26.8502 11.5039 27.5235 10.3261 27.5235 10.3261L28.1935 10.5829L28.6155 10.2185C28.6155 10.2185 30.5706 10.9917 30.7024 11.394C31.1904 12.8966 30.3119 14.0312 30.3787 14.0512Z" fill="#FFCECE"/>
    <path d="M30.7644 11.7364C30.6898 12.2749 30.6272 12.7629 30.7644 13.2898C30.799 13.4241 30.8559 13.574 30.986 13.6212C31.0794 13.655 31.1826 13.6242 31.2755 13.5891C31.6933 13.4285 32.073 13.1825 32.3904 12.8668C32.7077 12.5511 32.9557 12.1727 33.1185 11.7557C33.2975 11.2889 33.3637 10.7872 33.4123 10.2896C33.5285 9.09627 33.5296 8.34939 32.8953 7.33203C32.8953 7.33203 32.0053 8.84529 31.7571 9.90356C31.5039 10.978 30.8188 11.3449 30.7644 11.7364Z" fill="#FFCECE"/>
    <path d="M31.0778 12.5759C30.8032 12.9748 30.5613 13.3406 30.4564 13.8546C30.4289 13.9856 30.4143 14.1429 30.4973 14.2591C30.5569 14.3415 30.6499 14.3783 30.7364 14.4046C31.516 14.6416 32.3291 14.487 32.9106 13.99C33.2371 13.7118 33.4895 13.3381 33.7262 12.9573C34.2937 12.0434 34.5931 11.4289 34.503 10.2141C34.503 10.2141 33.2023 10.9316 32.5855 11.6557C31.9592 12.3911 31.2757 12.2856 31.0778 12.5759Z" fill="#FFBFC2"/>
    <path d="M29.9253 14.0087C29.087 13.526 27.5792 13.0237 26.6149 12.9471C26.0036 12.8988 25.3446 12.9241 24.8328 12.5833C24.7169 12.5061 24.5354 12.842 24.5354 12.842C24.5354 12.842 24.2224 12.9219 24.2333 12.9754C24.3259 13.3889 25.8243 14.984 26.7497 15.0897C28.8594 15.3292 29.9253 14.0087 29.9253 14.0087Z" fill="#FFCECE"/>
    <path d="M32.247 13.2353C32.3315 13.9561 31.6887 14.5355 30.9089 14.7497C30.129 14.9639 29.2339 14.8914 28.3692 14.8164C28.4282 14.2464 28.8841 13.79 29.4604 13.5291C30.0368 13.2683 30.7235 13.1793 31.41 13.1345C31.6876 13.1167 31.9669 13.1052 32.2434 13.0837L32.247 13.2353Z" fill="#FFB8BF"/>
    <path d="M29.6161 12.5831C29.5744 12.6425 29.516 12.6881 29.4484 12.7143C29.3807 12.7405 29.3068 12.7461 29.236 12.7303C29.1651 12.7144 29.1006 12.678 29.0505 12.6255C29.0004 12.573 28.967 12.5068 28.9545 12.4353C28.9421 12.3639 28.951 12.2903 28.9804 12.2239C29.0097 12.1575 29.0581 12.1014 29.1193 12.0625C29.1806 12.0236 29.252 12.0038 29.3246 12.0055C29.3971 12.0072 29.4675 12.0304 29.5269 12.0721C29.6065 12.128 29.6606 12.2133 29.6773 12.3091C29.694 12.4049 29.672 12.5035 29.6161 12.5831Z" fill="#FFF4E5"/>
    <path d="M31.1154 12.1194C31.0736 12.1787 31.0152 12.2244 30.9476 12.2505C30.8799 12.2767 30.8059 12.2822 30.7351 12.2663C30.6643 12.2505 30.5998 12.214 30.5497 12.1615C30.4997 12.109 30.4663 12.0428 30.4539 11.9713C30.4414 11.8998 30.4505 11.8262 30.4798 11.7599C30.5092 11.6935 30.5576 11.6374 30.6189 11.5985C30.6802 11.5597 30.7516 11.5399 30.8241 11.5416C30.8967 11.5434 30.9671 11.5666 31.0264 11.6083C31.106 11.6643 31.16 11.7496 31.1767 11.8454C31.1934 11.9413 31.1713 12.0398 31.1154 12.1194Z" fill="#FFFFD6"/>
    <path d="M32.2093 11.6455C32.1676 11.7049 32.1092 11.7506 32.0415 11.7769C31.9737 11.8031 31.8998 11.8086 31.8289 11.7928C31.758 11.777 31.6934 11.7405 31.6433 11.6879C31.5932 11.6354 31.5597 11.5692 31.5472 11.4976C31.5348 11.4261 31.5438 11.3525 31.5731 11.286C31.6025 11.2196 31.6509 11.1634 31.7122 11.1245C31.7736 11.0856 31.845 11.0658 31.9176 11.0675C31.9902 11.0692 32.0607 11.0924 32.1201 11.1342C32.1997 11.1902 32.2538 11.2755 32.2706 11.3714C32.2873 11.4673 32.2653 11.5659 32.2093 11.6455Z" fill="#FFF4E5"/>
    <path d="M29.0318 13.415C28.9901 13.4745 28.9316 13.5202 28.8639 13.5464C28.7962 13.5726 28.7222 13.5782 28.6513 13.5623C28.5805 13.5465 28.5159 13.51 28.4657 13.4575C28.4156 13.4049 28.3822 13.3387 28.3697 13.2672C28.3572 13.1956 28.3662 13.122 28.3956 13.0556C28.425 12.9892 28.4734 12.9329 28.5347 12.894C28.596 12.8551 28.6675 12.8353 28.7401 12.837C28.8127 12.8387 28.8832 12.862 28.9426 12.9037C28.982 12.9314 29.0156 12.9666 29.0414 13.0073C29.0673 13.048 29.0848 13.0934 29.0931 13.1409C29.1014 13.1884 29.1003 13.237 29.0897 13.2841C29.0792 13.3311 29.0595 13.3756 29.0318 13.415Z" fill="#FFFFD6"/>
    <path d="M30.2957 13.0142C30.4983 13.0142 30.6626 12.85 30.6626 12.6474C30.6626 12.4448 30.4983 12.2805 30.2957 12.2805C30.0931 12.2805 29.9289 12.4448 29.9289 12.6474C29.9289 12.85 30.0931 13.0142 30.2957 13.0142Z" fill="#FFF4E5"/>
    <path d="M46.9729 32.7742C45.24 33.4626 42.9293 33.5156 41.8019 31.7583C41.575 31.4049 41.5116 30.7884 41.9603 30.5465C42.0863 30.4784 42.6468 30.4515 42.5295 30.4048C41.8883 30.15 42.233 29.0719 44.8319 29.299C45.3679 29.3457 45.9605 29.567 46.3252 29.9795C46.5674 30.2541 46.6701 30.6453 46.7511 30.9924C46.8878 31.5769 46.9621 32.1741 46.9729 32.7742Z" fill="#FFCBCD"/>
    <path d="M46.9729 32.7742C47.1437 32.7684 46.9757 34.0768 46.9614 34.2021C46.8746 34.9693 46.7464 35.7812 46.4397 36.4954C46.1774 37.1045 45.6186 37.5251 45.0203 37.7758C44.5134 37.9881 43.8396 38.2113 43.2929 38.0573C42.7854 37.9148 42.3793 37.3189 42.6212 36.8507L42.2769 36.8002C41.8293 36.7832 41.6039 36.3147 41.6398 35.9119C41.6948 35.2911 42.287 34.7004 42.7206 34.2973C43.8728 33.2253 45.4978 33.0996 46.9729 32.7742Z" fill="#FFCECE"/>
    <path d="M46.9729 32.7743C47.577 32.7328 48.3909 33.017 48.8426 33.4187C49.2943 33.8205 49.6114 34.354 49.8446 34.9114C50.0307 35.3557 50.1691 35.8266 50.1804 36.3082C50.2024 37.2493 49.7441 38.1263 49.2979 38.955C49.2564 39.0324 49.213 39.1118 49.1455 39.1675C48.9156 39.3573 48.5751 39.1835 48.333 39.0094L48.1844 38.8831C48.1965 39.0152 48.0367 39.1093 47.9065 39.0843C47.7764 39.0594 47.6756 38.9589 47.5839 38.863C47.2692 38.5335 46.9523 38.204 46.7175 37.8127C46.4828 37.4214 46.3372 36.964 46.3966 36.5131L46.9729 32.7743Z" fill="#FFCECE"/>
    <path d="M53.4626 34.5072C53.4626 34.5072 53.7059 34.4012 53.6633 34.2584C53.5104 33.7446 52.9194 33.1257 52.4224 32.7874C51.7782 32.353 50.9928 32.18 50.2257 32.3036C49.7801 32.3775 49.3577 32.5507 47.0045 32.7515C47.0045 32.7515 46.9238 32.774 46.9694 32.8338C47.4255 33.4333 50.1821 36.6506 53.4645 34.7834C53.5364 34.7425 53.4626 34.5072 53.4626 34.5072Z" fill="#FFBFC2"/>
    <path d="M48.2728 32.6557C49.0184 32.5662 50.6343 32.3702 50.6793 32.329C50.7244 32.2878 50.7565 31.3218 50.6264 30.9354C50.4083 30.289 49.7383 30.0529 49.1526 29.8198C48.9426 29.5768 48.6952 29.3469 48.4195 29.1808C48.0309 28.9468 47.3596 28.982 46.9441 29.1382C46.7156 29.2239 45.4089 29.8102 45.6134 30.3884C45.8996 31.1977 46.292 32.3089 46.9716 32.8323L48.2728 32.6557Z" fill="#FFAEB3"/>
    <path d="M46.0971 32.6903C46.295 32.6064 46.3874 32.378 46.3035 32.1801C46.2196 31.9823 45.9912 31.8899 45.7933 31.9738C45.5955 32.0577 45.5031 32.2861 45.587 32.4839C45.6709 32.6818 45.8993 32.7742 46.0971 32.6903Z" fill="#FFF4E5"/>
    <path d="M45.3768 33.5679C45.3731 33.6448 45.3923 33.7211 45.432 33.7871C45.4717 33.8531 45.5301 33.9058 45.5998 33.9387C45.6695 33.9715 45.7473 33.9829 45.8235 33.9714C45.8996 33.96 45.9707 33.9262 46.0277 33.8744C46.0847 33.8226 46.125 33.755 46.1436 33.6803C46.1621 33.6055 46.1581 33.527 46.132 33.4545C46.1059 33.382 46.0589 33.3189 45.997 33.2732C45.935 33.2274 45.8609 33.2011 45.784 33.1975C45.6809 33.1926 45.58 33.2289 45.5037 33.2984C45.4273 33.3678 45.3817 33.4648 45.3768 33.5679Z" fill="#FFF4E5"/>
    <path d="M46.2958 33.1318C46.2921 33.2087 46.3113 33.2851 46.3509 33.3511C46.3906 33.4171 46.449 33.4699 46.5186 33.5028C46.5883 33.5356 46.6662 33.5471 46.7423 33.5357C46.8185 33.5243 46.8896 33.4905 46.9466 33.4387C47.0036 33.3869 47.044 33.3194 47.0626 33.2446C47.0812 33.1699 47.0772 33.0913 47.0511 33.0188C47.025 32.9463 46.978 32.8832 46.9161 32.8374C46.8541 32.7916 46.78 32.7653 46.703 32.7617C46.6 32.7568 46.4992 32.7931 46.4228 32.8625C46.3465 32.9319 46.3008 33.0287 46.2958 33.1318Z" fill="#FFFFD6"/>
    <path d="M47.5991 34.1415C47.6571 33.9352 47.5369 33.7209 47.3306 33.6629C47.1244 33.6049 46.9101 33.7251 46.8521 33.9314C46.794 34.1377 46.9142 34.352 47.1205 34.41C47.3268 34.468 47.5411 34.3478 47.5991 34.1415Z" fill="#FFF4E5"/>
    <path d="M45.2908 32.6703C45.3383 32.4607 45.207 32.2523 44.9975 32.2047C44.7879 32.1571 44.5794 32.2884 44.5319 32.498C44.4843 32.7076 44.6156 32.916 44.8252 32.9636C45.0347 33.0112 45.2432 32.8798 45.2908 32.6703Z" fill="#FFFFD6"/>
    <path d="M45.7288 34.6547C45.7996 34.4518 45.6925 34.2299 45.4896 34.1591C45.2868 34.0883 45.0649 34.1954 44.9941 34.3983C44.9232 34.6012 45.0303 34.823 45.2332 34.8938C45.4361 34.9647 45.658 34.8576 45.7288 34.6547Z" fill="#FFFFD6"/>
    <path d="M46.1714 34.5047C46.1677 34.5816 46.187 34.6579 46.2267 34.7238C46.2664 34.7898 46.3247 34.8426 46.3944 34.8754C46.464 34.9082 46.5419 34.9196 46.618 34.9082C46.6942 34.8968 46.7653 34.8631 46.8222 34.8113C46.8792 34.7595 46.9196 34.6919 46.9382 34.6172C46.9568 34.5425 46.9528 34.4639 46.9267 34.3915C46.9007 34.319 46.8538 34.2559 46.7918 34.2101C46.7299 34.1643 46.6558 34.1379 46.5789 34.1342C46.5278 34.1318 46.4768 34.1394 46.4286 34.1567C46.3805 34.174 46.3363 34.2006 46.2984 34.235C46.2606 34.2694 46.2299 34.311 46.2081 34.3572C46.1863 34.4035 46.1738 34.4536 46.1714 34.5047Z" fill="#FFFFD6"/>
    <path d="M73.8445 7.88456C73.8846 8.43154 74.042 8.9637 74.0969 9.50931C74.1669 10.2026 74.4791 11.6066 74.8078 12.2212C75.388 11.8156 75.5681 10.748 76.1483 10.3427C76.6665 9.9805 77.1918 9.61146 77.5864 9.11774C77.9809 8.62403 78.233 7.9793 78.116 7.35817C77.9991 6.73705 77.4381 6.18513 76.8068 6.21643C76.8068 6.21643 76.0338 5.78505 75.4665 5.83365C74.6461 5.90367 73.786 7.08798 73.8445 7.88456Z" fill="#FFCECE"/>
    <path d="M74.6793 12.982C75.4967 13.08 76.212 13.007 76.9773 12.9018C79.4036 12.5687 80.0741 11.229 79.9937 10.8468C79.9662 10.7155 79.7377 10.6647 79.7377 10.6647C79.9124 10.2685 79.8278 9.78905 79.587 9.42907C79.3462 9.06908 78.9681 8.81893 78.5661 8.65857C78.3524 8.57345 77.9554 8.6237 77.6245 8.85078C77.6245 8.85161 74.7174 11.1458 74.6793 12.982Z" fill="#FFBFC2"/>
    <path d="M73.8305 7.2359C73.736 6.67683 73.0795 6.33552 72.5248 6.45304C71.9702 6.57057 71.5429 7.03874 71.3191 7.55964C71.2625 7.69089 71.2271 7.86855 71.34 7.95642C70.9937 8.22057 70.5618 8.35705 70.2246 8.63273C69.534 9.19839 69.4316 10.3489 70.0115 11.0277C70.3882 11.4687 70.975 11.6867 71.5533 11.7345C72.1316 11.7823 74.3541 12.1266 74.9236 12.0116L73.8305 7.2359Z" fill="#FFCECE"/>
    <path d="M74.8742 12.1164C74.3875 11.4947 73.8223 10.9387 73.1926 10.4622C71.2414 8.98221 69.8199 9.45533 69.6065 9.78236C69.5332 9.89495 69.6587 10.0921 69.6587 10.0921C69.255 10.2486 68.9758 10.6476 68.8917 11.0724C68.8077 11.4972 68.8978 11.9415 69.0686 12.3393C69.1595 12.5505 69.4758 12.7954 69.8709 12.8685C69.8709 12.8671 73.5488 13.3866 74.8742 12.1164Z" fill="#FFBFC2"/>
    <path d="M76.8107 12.7311C76.5839 13.5445 75.6524 13.9226 74.7364 13.8523C73.8204 13.782 72.9101 13.3564 72.0298 12.9396C72.342 12.3453 73.0224 12.0276 73.7441 11.9686C74.4657 11.9096 75.2301 12.0798 75.9729 12.2981C76.2733 12.3863 76.5726 12.4821 76.8735 12.5661L76.8107 12.7311Z" fill="#FFB5BA"/>
    <path d="M73.6111 11.6636C73.5739 11.7309 73.5176 11.7857 73.4493 11.8211C73.381 11.8564 73.3037 11.8708 73.2272 11.8622C73.1507 11.8536 73.0785 11.8226 73.0197 11.773C72.9609 11.7234 72.9181 11.6575 72.8967 11.5836C72.8753 11.5097 72.8763 11.4311 72.8996 11.3578C72.9229 11.2845 72.9674 11.2197 73.0275 11.1716C73.0876 11.1236 73.1606 11.0944 73.2372 11.0878C73.3139 11.0813 73.3908 11.0976 73.4582 11.1347C73.5486 11.1846 73.6155 11.2683 73.6441 11.3675C73.6728 11.4666 73.6609 11.5731 73.6111 11.6636Z" fill="#FFFFD6"/>
    <path d="M75.706 10.0131C75.7109 9.79828 75.5408 9.62008 75.326 9.61509C75.1112 9.6101 74.933 9.78021 74.928 9.99505C74.923 10.2099 75.0931 10.3881 75.3079 10.3931C75.5228 10.3981 75.701 10.2279 75.706 10.0131Z" fill="#FFFFD6"/>
    <path d="M74.9631 11.4333C75.0876 11.2582 75.0465 11.0153 74.8714 10.8908C74.6962 10.7663 74.4533 10.8073 74.3288 10.9824C74.2043 11.1576 74.2453 11.4005 74.4205 11.525C74.5956 11.6495 74.8385 11.6085 74.9631 11.4333Z" fill="#FFFFD6"/>
    <path d="M76.2505 11.3419C76.2133 11.4092 76.1569 11.464 76.0886 11.4994C76.0202 11.5347 75.9429 11.549 75.8665 11.5404C75.79 11.5318 75.7178 11.5008 75.659 11.4511C75.6002 11.4015 75.5574 11.3356 75.5361 11.2617C75.5147 11.1877 75.5158 11.1091 75.5391 11.0358C75.5624 10.9625 75.607 10.8977 75.6671 10.8497C75.7272 10.8017 75.8002 10.7726 75.8769 10.7661C75.9536 10.7595 76.0304 10.7759 76.0978 10.813C76.1426 10.8377 76.1821 10.8709 76.2141 10.9108C76.246 10.9508 76.2698 10.9966 76.284 11.0458C76.2981 11.0949 76.3025 11.1463 76.2967 11.1972C76.291 11.248 76.2753 11.2972 76.2505 11.3419Z" fill="#FFF4E5"/>
    <path d="M73.875 10.4415C73.8378 10.5088 73.7815 10.5637 73.7131 10.599C73.6448 10.6343 73.5675 10.6486 73.491 10.64C73.4145 10.6314 73.3423 10.6004 73.2835 10.5507C73.2247 10.5011 73.1819 10.4352 73.1606 10.3613C73.1393 10.2873 73.1403 10.2088 73.1636 10.1354C73.1869 10.0621 73.2315 9.99734 73.2916 9.94932C73.3517 9.9013 73.4247 9.87219 73.5014 9.86566C73.5781 9.85913 73.655 9.87548 73.7223 9.91264C73.8127 9.96255 73.8795 10.0463 73.9081 10.1455C73.9368 10.2446 73.9248 10.3511 73.875 10.4415Z" fill="#FFF4E5"/>
    <path d="M65.6876 15.8366C65.4711 15.8808 65.2631 15.9594 65.0714 16.0692C64.5532 16.3656 64.0503 16.6881 63.5647 17.0354C63.3549 17.1854 63.1548 17.3463 62.9499 17.5022C62.8469 17.5805 62.6048 17.6887 62.5751 17.8279C62.4996 18.1805 63.2907 18.0226 63.434 17.9784C64.0382 17.7927 64.6125 17.5207 65.1389 17.1708C65.7131 16.7894 66.1615 16.2883 66.5882 15.7493C66.2642 15.7685 65.9729 15.7767 65.6876 15.8366Z" fill="#FFCECE"/>
    <path d="M67.1761 15.7541C67.0547 14.8007 66.9364 10.8532 63.1144 10.301C62.8071 10.6113 62.8046 10.8475 62.8046 10.8475C62.8046 10.8475 62.3738 11.0367 62.2598 10.9979C62.1975 12.1353 62.222 13.3157 62.9359 14.2032C64.5365 16.194 67.1761 15.7541 67.1761 15.7541Z" fill="#FFB8BF"/>
    <path d="M66.9694 15.3089C66.8268 15.0862 65.7886 12.2417 65.7266 12.0687C65.5733 11.6318 65.6846 11.148 65.8416 10.7125C65.9524 10.405 66.0852 10.1059 66.2392 9.81763C67.2665 9.89726 68.9519 11.1186 68.0853 14.4991L66.9694 15.3089Z" fill="#FFB8BF"/>
    <path d="M70.2562 11.32C70.2631 11.2771 70.2405 11.2071 70.1963 11.2066C69.2243 11.1928 68.2841 11.7258 67.7286 12.5246C67.4444 12.9324 67.3115 13.372 67.2083 13.8517C67.1072 14.3207 66.9441 14.8243 66.9694 15.3089C67.5087 15.106 68.0707 14.9445 68.565 14.67C68.8415 14.5215 69.0906 14.3269 69.3017 14.0947C69.6249 13.7328 69.8943 13.3127 70.1151 12.8816C70.176 12.7624 70.6686 11.5333 70.7046 11.5361C70.5349 11.517 70.3768 11.4408 70.2562 11.32Z" fill="#FFCECE"/>
    <path d="M69.0274 14.363C69.0842 14.5174 68.9832 14.6813 68.8841 14.8126C68.5872 15.2049 68.0224 15.7511 67.4425 16.2602C67.3736 16.3206 67.0778 16.574 66.9998 16.6394C66.2766 17.2435 65.6327 17.7103 65.5813 17.6524C65.5295 17.5925 65.4947 17.5199 65.4805 17.4421C65.4663 17.3642 65.4733 17.284 65.5006 17.2097C66.4454 14.9023 68.9706 14.2087 69.0274 14.363Z" fill="#FFCECE"/>
    <path d="M20.8567 19.7427C20.679 19.6114 20.4813 19.5094 20.2713 19.4407C19.7038 19.2552 19.1274 19.0984 18.5441 18.9709C18.2923 18.916 18.0386 18.8753 17.786 18.8275C17.6586 18.8037 17.4161 18.6966 17.2917 18.7677C16.9795 18.9481 17.6273 19.4292 17.7561 19.5063C18.299 19.83 18.8858 20.0735 19.4983 20.2293C20.1664 20.3996 20.8389 20.3963 21.5248 20.3518C21.2944 20.1247 21.0926 19.9146 20.8567 19.7427Z" fill="#FFCECE"/>
    <path d="M21.9161 20.7918C22.5438 20.0633 25.3921 17.3273 23.2385 14.1223C22.8025 14.1022 22.6254 14.2596 22.6254 14.2596C22.6254 14.2596 22.1962 14.0674 22.1487 13.9575C21.2628 14.6736 20.4039 15.484 20.2238 16.6087C19.8199 19.1286 21.9161 20.7918 21.9161 20.7918Z" fill="#FFB8BF"/>
    <path d="M22.108 20.3397C22.1778 20.0846 23.5908 17.4066 23.6795 17.2443C23.9011 16.8376 24.3347 16.5957 24.763 16.4205C25.0654 16.2965 25.3765 16.1947 25.6936 16.1157C26.3233 16.931 26.5473 19.0006 23.4579 20.6242L22.108 20.3397Z" fill="#FFB8BF"/>
    <path d="M27.2739 20.2262C27.3088 20.1531 27.3436 20.0175 27.3145 19.9843C26.6728 19.2539 25.6469 18.9134 24.6826 19.0364C24.1897 19.099 23.7742 19.295 23.3492 19.54C22.9337 19.7794 22.4507 19.9963 22.108 20.3399C22.6199 20.604 23.1158 20.9127 23.6512 21.0961C23.9467 21.2015 24.2579 21.2559 24.5716 21.257C25.0571 21.254 25.5492 21.1721 26.0174 21.0469C26.1464 21.0123 27.4032 20.6183 27.4101 20.5831C27.4169 20.548 27.2879 20.3541 27.2739 20.2262Z" fill="#FFCECE"/>
    <path d="M24.1894 21.2327C24.1131 21.3782 23.9239 21.4133 23.76 21.4276C23.2695 21.4704 22.4859 21.4177 21.7195 21.3288C21.6283 21.3181 21.2417 21.2686 21.1412 21.2543C20.2076 21.1234 19.4297 20.9586 19.4387 20.8812C19.4485 20.8026 19.4791 20.728 19.5274 20.6653C19.5757 20.6025 19.6399 20.5538 19.7133 20.5242C22.058 19.6785 24.266 21.0871 24.1894 21.2327Z" fill="#FFCECE"/>
    <path d="M65.8465 19.3198C67.0973 18.1956 69.2265 18.4908 69.526 18.8848C69.6589 19.0603 69.4947 19.434 69.6276 19.6092C70.0944 19.5471 70.2666 19.6841 70.3097 20.2841C70.3504 20.8479 69.8037 21.5989 69.4036 21.997C69.1463 22.2524 68.8802 22.5017 68.5798 22.7068C67.6827 23.3205 66.4962 23.4894 65.4638 23.15C65.3608 23.1162 64.4478 21.902 64.5041 21.8095C64.503 21.8095 65.4621 19.6655 65.8465 19.3198Z" fill="#FFB8BF"/>
    <path d="M64.2438 21.4298C64.5184 21.6358 64.6859 21.5844 64.9242 21.3612C65.4185 20.8996 65.6395 20.0157 65.7389 19.3698C65.9119 18.244 65.2466 17.1682 64.548 16.3345C64.4091 16.1698 64.255 16.005 64.0537 15.9243C63.8525 15.8436 63.5935 15.8713 63.4604 16.0418C63.4604 16.0418 63.0861 16.0144 62.9708 16.1124C62.8554 16.2104 62.7857 16.3513 62.7264 16.4908C62.42 17.225 62.3335 18.0324 62.4773 18.8149C62.5424 19.1735 62.6448 19.5788 62.8362 19.8927C63.1781 20.4539 63.7163 21.035 64.2438 21.4298Z" fill="#FFCECE"/>
    <path d="M64.6598 21.6446C64.6996 22.1285 64.2424 23.0195 63.9014 23.3649C63.5603 23.7104 63.0658 23.8661 62.5803 23.8628C61.4435 23.8545 60.9443 21.3467 60.9443 21.3467C60.7197 20.9442 60.5857 20.4732 60.6681 20.0199C60.7505 19.5665 61.0822 19.1429 61.5319 19.0418C62.1248 18.9089 62.6992 19.3439 63.0617 19.8313L64.6598 21.6446Z" fill="#FFB8BF"/>
    <path d="M62.971 23.8264C62.6555 24.0246 62.055 24.3563 62.8247 25.2713C63.0952 25.5928 63.5057 25.6782 63.9211 25.7405C64.2992 25.7974 64.8116 25.9223 65.165 26.07C65.7639 26.3172 66.625 25.9805 66.5748 25.7661C66.5245 25.5516 66.3919 25.3671 66.2612 25.1894C65.8098 24.5765 65.1862 22.2384 64.7076 21.6472C64.7076 21.6447 63.3143 23.6105 62.971 23.8264Z" fill="#FFAEB3"/>
    <path d="M67.2574 23.314C67.6833 23.3296 68.1004 23.2687 68.5246 23.2478C68.8835 23.2299 69.2581 23.2777 69.556 23.4949C69.8778 23.7289 69.8687 23.9892 69.9563 24.3302C70.0038 24.5166 70.016 24.7102 69.9923 24.9011C69.9808 24.9969 69.8029 25.1482 69.8029 25.1482C69.8029 25.1482 69.8537 25.4113 69.7971 25.5162C69.6492 25.7966 69.4222 26.0273 69.1441 26.1796C68.4337 26.5585 67.5191 26.352 66.8823 25.8594C66.2455 25.3668 65.8389 24.6378 65.5053 23.9043C65.4624 23.8099 64.6172 21.7395 64.6598 21.645C65.1428 21.7183 66.1343 23.1827 66.6173 23.256C66.8294 23.2875 67.0431 23.3068 67.2574 23.314Z" fill="#FFCECE"/>
    <path d="M66.0638 19.9146C66.0902 19.9869 66.0946 20.0654 66.0765 20.1402C66.0583 20.215 66.0183 20.2827 65.9617 20.3348C65.905 20.3869 65.8342 20.421 65.7581 20.4328C65.6821 20.4446 65.6042 20.4337 65.5344 20.4012C65.4646 20.3688 65.406 20.3164 65.366 20.2507C65.326 20.1849 65.3064 20.1088 65.3096 20.0319C65.3129 19.955 65.3389 19.8808 65.3843 19.8187C65.4297 19.7566 65.4925 19.7093 65.5648 19.6829C65.6128 19.6653 65.6638 19.6574 65.7148 19.6595C65.7659 19.6617 65.816 19.6738 65.8623 19.6954C65.9087 19.7169 65.9503 19.7473 65.9849 19.785C66.0194 19.8226 66.0462 19.8666 66.0638 19.9146Z" fill="#FFFFD6"/>
    <path d="M67.0792 21.6446C67.1057 21.7169 67.1102 21.7954 67.092 21.8702C67.0739 21.945 67.034 22.0128 66.9774 22.0649C66.9207 22.117 66.8499 22.1512 66.7739 22.163C66.6978 22.1749 66.62 22.1639 66.5501 22.1315C66.4803 22.0991 66.4217 22.0468 66.3816 21.981C66.3416 21.9153 66.3219 21.8392 66.3251 21.7623C66.3284 21.6854 66.3543 21.6111 66.3997 21.549C66.4452 21.4869 66.508 21.4396 66.5803 21.4131C66.6282 21.3956 66.6792 21.3876 66.7302 21.3897C66.7812 21.3919 66.8314 21.404 66.8777 21.4255C66.924 21.447 66.9657 21.4774 67.0002 21.515C67.0348 21.5526 67.0616 21.5967 67.0792 21.6446Z" fill="#FFFFD6"/>
    <path d="M66.6887 20.5769C66.7152 20.6492 66.7196 20.7277 66.7014 20.8025C66.6833 20.8773 66.6433 20.945 66.5867 20.9971C66.53 21.0492 66.4592 21.0833 66.3831 21.0951C66.3071 21.1069 66.2292 21.0959 66.1594 21.0635C66.0896 21.0311 66.031 20.9787 65.991 20.913C65.951 20.8472 65.9313 20.7711 65.9346 20.6942C65.9378 20.6173 65.9638 20.5431 66.0092 20.481C66.0547 20.4188 66.1175 20.3716 66.1898 20.3452C66.2867 20.3098 66.3937 20.3143 66.4872 20.3577C66.5808 20.4012 66.6533 20.48 66.6887 20.5769Z" fill="#FFFFE5"/>
    <path d="M66.1909 22.3521C66.2173 22.4243 66.2216 22.5027 66.2034 22.5774C66.1852 22.6521 66.1453 22.7197 66.0887 22.7718C66.0321 22.8238 65.9613 22.8578 65.8853 22.8696C65.8093 22.8814 65.7316 22.8704 65.6618 22.8381C65.5921 22.8057 65.5336 22.7533 65.4936 22.6877C65.4536 22.622 65.4339 22.5459 65.4372 22.4691C65.4404 22.3923 65.4663 22.3182 65.5117 22.2561C65.557 22.194 65.6198 22.1467 65.692 22.1203C65.7889 22.0849 65.8958 22.0894 65.9894 22.1329C66.083 22.1763 66.1554 22.2552 66.1909 22.3521Z" fill="#FFFFE5"/>
    <path d="M65.1151 21.1526C65.1415 21.2249 65.1459 21.3034 65.1278 21.3782C65.1096 21.453 65.0696 21.5207 65.013 21.5728C64.9563 21.6248 64.8855 21.659 64.8094 21.6708C64.7334 21.6826 64.6555 21.6716 64.5857 21.6392C64.5159 21.6068 64.4573 21.5544 64.4173 21.4886C64.3773 21.4229 64.3577 21.3468 64.3609 21.2699C64.3642 21.193 64.3902 21.1188 64.4356 21.0566C64.481 20.9945 64.5438 20.9473 64.6161 20.9208C64.713 20.8854 64.82 20.89 64.9136 20.9334C65.0071 20.9769 65.0796 21.0557 65.1151 21.1526Z" fill="#FFFFD6"/>
    <path d="M64.858 20.0997C64.8845 20.172 64.8889 20.2505 64.8707 20.3253C64.8526 20.4 64.8126 20.4678 64.756 20.5199C64.6993 20.5719 64.6285 20.6061 64.5524 20.6179C64.4764 20.6297 64.3985 20.6187 64.3287 20.5863C64.2589 20.5539 64.2003 20.5015 64.1603 20.4357C64.1203 20.37 64.1006 20.2939 64.1039 20.217C64.1071 20.1401 64.1331 20.0659 64.1786 20.0037C64.224 19.9416 64.2868 19.8944 64.3591 19.8679C64.4071 19.8504 64.458 19.8424 64.5091 19.8446C64.5601 19.8467 64.6103 19.8589 64.6566 19.8804C64.7029 19.9019 64.7446 19.9324 64.7791 19.97C64.8137 20.0076 64.8405 20.0517 64.858 20.0997Z" fill="#FFFFE5"/>
    <path d="M66.0644 21.4026C66.0713 21.1879 65.9029 21.0084 65.6882 21.0015C65.4736 20.9947 65.2941 21.1631 65.2872 21.3777C65.2803 21.5924 65.4488 21.7719 65.6634 21.7788C65.878 21.7856 66.0576 21.6172 66.0644 21.4026Z" fill="#FFFFD6"/>
    <path d="M42.8909 24.8025C42.7055 24.2344 37.3283 24.0949 37.3365 26.6994C37.3381 27.2134 37.9837 27.9955 38.481 28.1273C38.3129 28.2242 38.4653 28.44 38.5483 28.6149C38.6371 28.7987 38.7647 28.961 38.9223 29.0907C39.08 29.2203 39.2638 29.3142 39.4613 29.3659C40.1996 29.5538 40.9517 29.1147 41.5168 28.6037C41.9716 28.1918 42.3848 27.6975 42.5328 27.1036L42.8909 24.8025Z" fill="#FFCCCE"/>
    <path d="M42.8543 24.75C42.9845 24.6325 43.7745 25.3816 43.8813 25.5189C44.3763 26.1631 44.7949 26.8626 45.1288 27.6033C45.4165 28.2417 45.6409 28.9726 45.4069 29.6328C45.2208 30.1583 44.7754 30.5458 44.3174 30.8646C44.0376 31.0598 43.7663 30.7915 43.4815 30.802C43.2679 30.8099 43.0391 31.1315 42.8351 31.0598C42.2222 30.8453 41.6755 30.3201 41.3367 29.7659C41.1025 29.3832 40.9273 28.9504 40.9248 28.5028C40.9204 27.7548 41.3699 27.1982 41.762 26.6082C42.1187 26.0741 42.3851 25.174 42.8543 24.75Z" fill="#FFBFC2"/>
    <path d="M39.7732 24.5974C38.9876 24.3887 38.2338 23.9532 37.7961 23.2686C37.5474 22.8801 37.4081 22.4114 37.4628 21.9531C37.5174 21.4948 38.2833 20.894 38.2833 20.894C38.4016 20.6488 38.5397 20.406 38.7454 20.2281C39.5618 19.5216 40.9696 20.0161 41.7607 20.5101C42.4416 20.9355 42.8041 21.6398 42.9414 22.4125C43.0117 22.804 42.962 24.8442 42.962 24.8442C42.962 24.8442 42.1319 24.9681 41.7384 24.9181C41.0849 24.8352 40.4122 24.7671 39.7732 24.5974Z" fill="#FFBFC2"/>
    <path d="M42.8722 21.2786C43.0713 20.4782 43.9233 20.013 44.6807 20.1089C45.438 20.2047 46.1909 20.6377 46.5844 21.3657C47.7102 23.4385 46.4995 24.4452 45.6716 24.6882C44.8438 24.9312 43.5051 25.094 42.6671 24.912L42.8722 21.2786Z" fill="#FFB8BF"/>
    <path d="M42.602 24.9122C42.6339 24.8551 42.714 24.8002 42.8686 24.7027C43.5628 24.2658 44.3835 24.078 45.1807 23.9338C45.804 23.8207 46.8428 23.4734 47.4584 23.6944C47.8876 23.8482 48.1534 24.3315 48.3354 24.723C48.4628 24.9976 48.487 25.3252 48.3187 25.5929C48.2028 25.7774 48.0026 25.9224 47.9307 26.1234C47.8609 26.3156 47.9244 26.5186 47.9581 26.7146C48.0584 27.2794 47.5787 29.209 45.7614 29.1093C44.3973 29.0343 43.5202 27.1622 43.0282 26.1078C42.9126 25.8565 42.5545 24.9987 42.602 24.9122Z" fill="#FFCCCE"/>
    <path d="M41.262 24.2258C41.2584 24.3026 41.2777 24.3788 41.3173 24.4446C41.357 24.5105 41.4153 24.5631 41.4849 24.5959C41.5544 24.6286 41.6322 24.64 41.7082 24.6285C41.7842 24.6171 41.8552 24.5834 41.912 24.5317C41.9689 24.4799 42.0092 24.4125 42.0277 24.3379C42.0463 24.2633 42.0423 24.1848 42.0163 24.1125C41.9903 24.0401 41.9434 23.9771 41.8816 23.9314C41.8198 23.8857 41.7458 23.8593 41.669 23.8557C41.6179 23.8532 41.5669 23.8609 41.5189 23.8782C41.4708 23.8954 41.4266 23.922 41.3888 23.9564C41.351 23.9908 41.3203 24.0323 41.2986 24.0785C41.2768 24.1247 41.2644 24.1748 41.262 24.2258Z" fill="#FFFFE5"/>
    <path d="M40.8438 25.4634C40.8402 25.5402 40.8595 25.6163 40.8991 25.6822C40.9388 25.748 40.9971 25.8007 41.0667 25.8334C41.1362 25.8661 41.2139 25.8775 41.29 25.8661C41.366 25.8547 41.437 25.821 41.4938 25.7692C41.5507 25.7175 41.591 25.6501 41.6095 25.5754C41.6281 25.5008 41.6241 25.4224 41.5981 25.35C41.5721 25.2777 41.5252 25.2147 41.4634 25.169C41.4015 25.1232 41.3276 25.0969 41.2508 25.0932C41.1997 25.0908 41.1487 25.0984 41.1006 25.1157C41.0526 25.133 41.0084 25.1596 40.9706 25.194C40.9328 25.2283 40.9021 25.2698 40.8804 25.316C40.8586 25.3623 40.8462 25.4123 40.8438 25.4634Z" fill="#FFFFD6"/>
    <path d="M42.4069 26.5278C42.6216 26.5229 42.7916 26.3449 42.7867 26.1302C42.7818 25.9155 42.6038 25.7455 42.3891 25.7504C42.1744 25.7553 42.0044 25.9333 42.0093 26.148C42.0142 26.3627 42.1922 26.5327 42.4069 26.5278Z" fill="#FFFFE5"/>
    <path d="M42.6058 25.3299C42.7577 25.178 42.7577 24.9318 42.6058 24.78C42.454 24.6282 42.2078 24.6282 42.056 24.78C41.9041 24.9318 41.9041 25.178 42.056 25.3299C42.2078 25.4817 42.454 25.4817 42.6058 25.3299Z" fill="#FFFFD6"/>
    <path d="M42.7317 23.7638C42.8447 23.5812 42.7883 23.3416 42.6058 23.2285C42.4232 23.1155 42.1835 23.1719 42.0705 23.3545C41.9575 23.537 42.0139 23.7767 42.1964 23.8897C42.379 24.0027 42.6187 23.9464 42.7317 23.7638Z" fill="#FFFFD6"/>
    <path d="M31.3057 29.907C30.8957 30.2714 30.569 30.7201 30.1694 31.0957C29.6614 31.5727 28.7369 32.6746 28.4489 33.3092C29.1238 33.5231 30.0807 33.0168 30.7554 33.2309C31.3579 33.4232 31.9705 33.6154 32.6023 33.6275C33.2341 33.6395 33.8992 33.4484 34.3209 32.9778C34.7427 32.5071 34.8399 31.7262 34.4308 31.2443C34.4308 31.2443 34.3031 30.3684 33.9195 29.9474C33.3654 29.3389 31.9024 29.3763 31.3057 29.907Z" fill="#FFCECE"/>
    <path d="M27.767 33.6697C28.1861 34.3781 28.6792 34.9015 29.2281 35.4452C30.9682 37.1685 32.4408 36.8862 32.694 36.59C32.7813 36.4881 32.6827 36.2761 32.6827 36.2761C33.1034 36.1737 33.4326 35.8148 33.5719 35.4048C33.7111 34.9949 33.68 34.5426 33.5628 34.1258C33.5005 33.9045 33.219 33.62 32.837 33.4959C32.837 33.4959 29.2479 32.5832 27.767 33.6697Z" fill="#FFBFC2"/>
    <path d="M31.812 29.5012C32.1986 29.0863 32.0701 28.3576 31.6396 27.9888C31.209 27.62 30.5775 27.5657 30.0277 27.7046C29.8904 27.7397 29.7257 27.8197 29.7257 27.9627C29.3053 27.8485 28.9343 27.5884 28.5104 27.4888C27.6413 27.2842 26.6657 27.9026 26.4784 28.7758C26.3576 29.3431 26.5404 29.942 26.8551 30.4296C27.1698 30.9173 28.2476 32.8921 28.6847 33.2735L31.812 29.5012Z" fill="#FFCECE"/>
    <path d="M28.6419 33.3309C28.8465 32.5346 28.8679 31.7289 28.8643 30.9562C28.8522 28.5074 27.6125 27.6667 27.2228 27.6963C27.0891 27.7065 27.0089 27.9259 27.0089 27.9259C26.639 27.701 26.1525 27.7218 25.7642 27.9132C25.3759 28.1046 25.0777 28.4468 24.866 28.8243C24.7537 29.0248 24.7515 29.4249 24.9338 29.7829C24.9327 29.7829 26.8274 33.0519 28.6419 33.3309Z" fill="#FFBFC2"/>
    <path d="M29.2622 35.2094C28.4788 35.524 27.6119 35.0144 27.1108 34.2445C26.6097 33.4745 26.3936 32.4934 26.1893 31.5411C26.851 31.4274 27.5166 31.7742 28.0016 32.3113C28.4865 32.8484 28.8171 33.5585 29.0961 34.2807C29.2089 34.5726 29.3157 34.8686 29.4311 35.1594L29.2622 35.2094Z" fill="#FFB5BA"/>
    <path d="M28.3757 31.9184C28.5306 31.7695 28.5354 31.5231 28.3864 31.3683C28.2375 31.2134 27.9912 31.2085 27.8363 31.3575C27.6814 31.5064 27.6766 31.7528 27.8255 31.9077C27.9745 32.0625 28.2208 32.0674 28.3757 31.9184Z" fill="#FFFFD6"/>
    <path d="M30.5744 32.7468C30.4983 32.7583 30.4204 32.7469 30.3508 32.7141C30.2811 32.6814 30.2226 32.6287 30.1829 32.5627C30.1432 32.4967 30.1239 32.4204 30.1275 32.3435C30.1311 32.2666 30.1575 32.1925 30.2032 32.1305C30.249 32.0685 30.312 32.0215 30.3845 31.9954C30.457 31.9694 30.5355 31.9653 30.6103 31.9839C30.685 32.0024 30.7526 32.0428 30.8044 32.0997C30.8563 32.1567 30.89 32.2277 30.9015 32.3039C30.9168 32.406 30.8909 32.51 30.8296 32.593C30.7683 32.676 30.6765 32.7314 30.5744 32.7468Z" fill="#FFFFD6"/>
    <path d="M29.2127 32.9521C29.1367 32.9635 29.0589 32.9522 28.9892 32.9194C28.9196 32.8867 28.8612 32.8341 28.8215 32.7681C28.7818 32.7022 28.7625 32.626 28.7661 32.5492C28.7697 32.4723 28.796 32.3982 28.8417 32.3363C28.8874 32.2744 28.9504 32.2274 29.0228 32.2013C29.0951 32.1752 29.1736 32.1711 29.2483 32.1896C29.323 32.2081 29.3905 32.2484 29.4424 32.3052C29.4942 32.3621 29.528 32.4331 29.5395 32.5092C29.5549 32.6112 29.5291 32.7152 29.4678 32.7982C29.4065 32.8813 29.3148 32.9366 29.2127 32.9521Z" fill="#FFFFD6"/>
    <path d="M30.0349 33.9197C30.2463 33.8811 30.3865 33.6785 30.3479 33.4671C30.3094 33.2557 30.1068 33.1156 29.8954 33.1541C29.684 33.1926 29.5438 33.3953 29.5823 33.6067C29.6209 33.8181 29.8235 33.9582 30.0349 33.9197Z" fill="#FFF4E5"/>
    <path d="M29.2946 31.4862C29.2185 31.4977 29.1407 31.4864 29.0711 31.4536C29.0014 31.4209 28.9431 31.3682 28.9034 31.3023C28.8637 31.2364 28.8444 31.1602 28.848 31.0834C28.8515 31.0065 28.8778 30.9324 28.9235 30.8705C28.9692 30.8086 29.0322 30.7616 29.1046 30.7355C29.177 30.7094 29.2555 30.7053 29.3302 30.7238C29.4049 30.7423 29.4724 30.7825 29.5242 30.8394C29.576 30.8963 29.6098 30.9673 29.6213 31.0433C29.629 31.0939 29.6266 31.1454 29.6143 31.195C29.602 31.2447 29.5801 31.2914 29.5497 31.3325C29.5194 31.3736 29.4812 31.4084 29.4375 31.4348C29.3937 31.4611 29.3451 31.4786 29.2946 31.4862Z" fill="#FFF4E5"/>
    <path d="M41.8568 7.7886C41.4471 8.15326 41.1203 8.60166 40.7205 8.9773C40.2128 9.45454 39.2883 10.5562 39.0002 11.1908C39.6749 11.4047 40.6321 10.8986 41.3068 11.1125C41.9092 11.3047 42.5218 11.4969 43.1537 11.5093C43.7855 11.5216 44.4505 11.33 44.8723 10.8596C45.2941 10.3892 45.391 9.60803 44.9821 9.12585C44.9821 9.12585 44.8542 8.24991 44.4709 7.82924C43.9167 7.22048 42.4537 7.25782 41.8568 7.7886Z" fill="#FFCECE"/>
    <path d="M38.3184 11.5512C38.7374 12.2596 39.2303 12.7833 39.7792 13.3267C41.5193 15.05 42.9919 14.7677 43.2451 14.4714C43.3327 14.3696 43.2341 14.1576 43.2341 14.1576C43.6548 14.0552 43.984 13.6963 44.1232 13.2863C44.2625 12.8763 44.2312 12.4241 44.1142 12.0073C44.0519 11.7859 43.7704 11.5015 43.3882 11.3774C43.3882 11.3774 39.7993 10.4649 38.3184 11.5512Z" fill="#FFBFC2"/>
    <path d="M42.3634 7.38301C42.7498 6.9681 42.6215 6.23934 42.1907 5.87057C41.7599 5.5018 41.1289 5.44715 40.5791 5.58637C40.4418 5.62124 40.2771 5.70115 40.2771 5.84421C39.8567 5.72998 39.486 5.47132 39.0617 5.37027C38.1927 5.16597 37.2171 5.78435 37.0298 6.65727C36.909 7.22485 37.0918 7.82373 37.4062 8.31112C37.7206 8.79852 38.7995 10.7736 39.2372 11.1553L42.3634 7.38301Z" fill="#FFCECE"/>
    <path d="M39.1932 11.2125C39.3978 10.4162 39.4192 9.61052 39.4154 8.8381C39.4036 6.38904 38.1635 5.54825 37.7742 5.5779C37.6402 5.58806 37.56 5.80773 37.56 5.80773C37.1901 5.58257 36.7038 5.60344 36.3153 5.7951C35.9267 5.98677 35.6288 6.32836 35.4174 6.70592C35.3048 6.90637 35.3029 7.30672 35.4852 7.66451C35.4852 7.66451 37.3777 10.9338 39.1932 11.2125Z" fill="#FFBFC2"/>
    <path d="M39.8136 13.0907C39.0302 13.4054 38.1633 12.896 37.6622 12.1261C37.161 11.3561 36.9449 10.3747 36.7406 9.42245C37.4021 9.30877 38.068 9.65585 38.5529 10.193C39.0378 10.73 39.3685 11.4401 39.6472 12.162C39.76 12.4539 39.8668 12.7499 39.9824 13.0407L39.8136 13.0907Z" fill="#FFB5BA"/>
    <path d="M38.7152 9.90153C38.6391 9.91299 38.5613 9.90164 38.4917 9.8689C38.422 9.83616 38.3637 9.78351 38.324 9.71761C38.2842 9.6517 38.265 9.5755 38.2686 9.49864C38.2721 9.42178 38.2984 9.3477 38.3441 9.28578C38.3898 9.22386 38.4528 9.17688 38.5252 9.15077C38.5976 9.12466 38.6761 9.1206 38.7508 9.1391C38.8255 9.1576 38.893 9.19783 38.9448 9.2547C38.9966 9.31157 39.0304 9.38254 39.0419 9.45862C39.0496 9.50916 39.0472 9.56071 39.0349 9.61032C39.0226 9.65994 39.0007 9.70664 38.9703 9.74777C38.94 9.78891 38.9018 9.82365 38.8581 9.85004C38.8143 9.87642 38.7657 9.89392 38.7152 9.90153Z" fill="#FFFFD6"/>
    <path d="M41.1474 10.6242C41.3578 10.5803 41.4927 10.3741 41.4488 10.1638C41.4049 9.95342 41.1988 9.81849 40.9884 9.86239C40.7781 9.9063 40.6431 10.1124 40.687 10.3228C40.731 10.5331 40.9371 10.6681 41.1474 10.6242Z" fill="#FFFFD6"/>
    <path d="M40.088 10.5296C40.1323 10.3194 39.9978 10.113 39.7876 10.0686C39.5773 10.0243 39.3709 10.1588 39.3265 10.369C39.2822 10.5793 39.4167 10.7857 39.627 10.8301C39.8372 10.8744 40.0436 10.7399 40.088 10.5296Z" fill="#FFFFD6"/>
    <path d="M40.5758 11.8012C40.4997 11.8127 40.4219 11.8013 40.3523 11.7686C40.2827 11.7358 40.2243 11.6832 40.1846 11.6173C40.1449 11.5514 40.1256 11.4752 40.1292 11.3983C40.1328 11.3214 40.1591 11.2474 40.2047 11.1854C40.2504 11.1235 40.3134 11.0765 40.3858 11.0504C40.4582 11.0243 40.5367 11.0203 40.6114 11.0388C40.6861 11.0573 40.7536 11.0975 40.8054 11.1544C40.8573 11.2112 40.8911 11.2822 40.9026 11.3583C40.9102 11.4088 40.9078 11.4604 40.8955 11.51C40.8832 11.5596 40.8613 11.6063 40.831 11.6474C40.8006 11.6886 40.7625 11.7233 40.7187 11.7497C40.6749 11.7761 40.6264 11.7936 40.5758 11.8012Z" fill="#FFF4E5"/>
    <path d="M40.0997 9.21278C40.2273 9.03988 40.1906 8.79627 40.0177 8.66866C39.8448 8.54105 39.6012 8.57776 39.4736 8.75066C39.346 8.92356 39.3827 9.16717 39.5556 9.29478C39.7285 9.42239 39.9721 9.38568 40.0997 9.21278Z" fill="#FFF4E5"/>
    <path d="M23.2078 26.9499C24.2311 26.5723 28.5666 25.4284 28.1962 21.061C27.7747 20.801 27.5128 20.8587 27.5128 20.8587C27.5128 20.8587 27.1931 20.4306 27.2066 20.2949C25.9331 20.5187 24.6345 20.8482 23.8357 21.8642C22.0446 24.1433 23.2078 26.9499 23.2078 26.9499Z" fill="#FFB8BF"/>
    <path d="M23.6471 26.6071C23.8572 26.3926 26.7357 24.5144 26.9128 24.4021C27.3568 24.1206 27.9203 24.1198 28.4423 24.1824C28.8106 24.2262 29.1753 24.2966 29.5335 24.393C29.7087 25.5491 28.7902 27.726 24.83 27.6332L23.6471 26.6071Z" fill="#FFB8BF"/>
    <path d="M24.7614 28.2072C24.9963 28.4746 25.2748 28.7001 25.5851 28.8742C26.0684 29.1386 26.6011 29.3289 27.1352 29.4627C27.2824 29.4995 28.7679 29.7293 28.7729 29.7702C28.7474 29.5498 28.8089 29.3282 28.9442 29.1524L28.9151 29.2144C28.9052 29.291 29.0249 29.1988 29.0082 29.1233C28.774 28.0447 27.9439 27.1418 26.9194 26.7321C26.3955 26.5226 25.8759 26.488 25.3188 26.4968C24.7743 26.5053 24.1754 26.4543 23.646 26.6067C24.0096 27.1514 24.3314 27.7308 24.7614 28.2072Z" fill="#FFCECE"/>
    <path d="M23.6619 25.3282C23.6351 24.973 23.548 24.625 23.4044 24.299C23.1773 23.7971 22.8656 23.3245 22.5196 22.8967C22.4244 22.7789 21.3757 21.702 21.3963 21.6663C21.3229 21.791 21.219 21.8949 21.0943 21.9683C20.9808 21.9749 20.8383 22.0013 20.8197 22.0405C20.3581 23.0428 20.4783 24.2647 21.0503 25.2071C21.3428 25.6895 21.7368 26.0309 22.1877 26.3576C22.627 26.6783 23.0754 27.0792 23.5897 27.2764C23.6273 26.6245 23.7188 25.968 23.6619 25.3282Z" fill="#FFCECE"/>
    <path d="M25.2021 28.6581C25.0461 28.7602 24.8388 28.6908 24.6686 28.615C24.1581 28.3871 23.4096 27.9027 22.6981 27.392C22.6138 27.3313 22.2588 27.069 22.1654 26.9996C21.3114 26.3548 20.6304 25.7623 20.6826 25.6906C20.7848 25.5475 20.9778 25.4597 21.1513 25.4879C23.9442 25.9413 25.3581 28.5559 25.2021 28.6581Z" fill="#FFCECE"/>
    <path d="M24.327 25.5748C24.527 25.4966 24.6258 25.2711 24.5476 25.0711C24.4695 24.8711 24.244 24.7723 24.044 24.8505C23.844 24.9286 23.7452 25.1541 23.8233 25.3541C23.9015 25.5541 24.127 25.6529 24.327 25.5748Z" fill="#FFFFE5"/>
    <path d="M25.0971 25.9771C25.2931 25.889 25.3806 25.6587 25.2925 25.4627C25.2044 25.2667 24.9741 25.1792 24.7781 25.2673C24.5821 25.3553 24.4946 25.5857 24.5827 25.7817C24.6708 25.9777 24.9011 26.0651 25.0971 25.9771Z" fill="#FFFFD6"/>
    <path d="M25.9339 26.2624C26.0076 26.2842 26.0862 26.2837 26.1596 26.2608C26.233 26.238 26.298 26.1939 26.3464 26.1342C26.3948 26.0744 26.4244 26.0016 26.4314 25.925C26.4384 25.8485 26.4226 25.7715 26.3859 25.704C26.3492 25.6364 26.2932 25.5812 26.2252 25.5454C26.1571 25.5096 26.08 25.4948 26.0035 25.5029C25.927 25.5109 25.8547 25.5414 25.7956 25.5906C25.7364 25.6398 25.6932 25.7054 25.6714 25.7791C25.6568 25.8281 25.6521 25.8794 25.6574 25.9302C25.6627 25.9811 25.678 26.0303 25.7024 26.0752C25.7268 26.1201 25.7598 26.1597 25.7995 26.1918C25.8392 26.224 25.8849 26.2479 25.9339 26.2624Z" fill="#FFFFE5"/>
    <path d="M16.8172 23.352C15.6791 22.1145 13.5307 22.2067 13.1962 22.5708C13.0474 22.7331 13.1754 23.12 13.0265 23.2823C12.5677 23.1763 12.3835 23.2966 12.2835 23.8897C12.1899 24.4471 12.663 25.2464 13.0249 25.6806C13.2569 25.9593 13.4983 26.2328 13.7767 26.4651C14.6115 27.1611 15.7766 27.4418 16.8367 27.2018C16.9425 27.1776 17.9664 26.0554 17.9189 25.9579C17.9186 25.9579 17.1673 23.7315 16.8172 23.352Z" fill="#FFB8BF"/>
    <path d="M18.2127 25.6049C17.9192 25.7836 17.758 25.7166 17.5419 25.472C17.0948 24.9659 16.9573 24.065 16.9194 23.4125C16.8538 22.2746 17.6182 21.2677 18.3923 20.5038C18.5463 20.3517 18.7155 20.2018 18.9231 20.1422C19.1306 20.0826 19.386 20.1331 19.5027 20.3154C19.5027 20.3154 19.8778 20.3231 19.9832 20.4321C20.0887 20.5412 20.145 20.6872 20.1906 20.8317C20.4259 21.5918 20.4355 22.4038 20.218 23.1693C20.1192 23.5202 19.9789 23.9137 19.7586 24.2083C19.366 24.7341 18.7753 25.2616 18.2127 25.6049Z" fill="#FFCECE"/>
    <path d="M17.7783 25.7777C17.6929 26.2555 18.0636 27.1858 18.3706 27.5625C18.6776 27.9393 19.1548 28.1392 19.6386 28.1831C20.771 28.2828 21.5058 25.8334 21.5058 25.8334C21.7673 25.454 21.9452 24.9979 21.9062 24.5388C21.8672 24.0796 21.5767 23.6263 21.139 23.4832C20.5624 23.2946 19.9484 23.673 19.5414 24.1241L17.7783 25.7777Z" fill="#FFB8BF"/>
    <path d="M19.2528 28.1108C19.548 28.3381 20.1145 28.725 19.2616 29.5631C18.9621 29.8574 18.5452 29.9036 18.1259 29.9264C17.744 29.9472 17.222 30.023 16.8562 30.1356C16.2368 30.3264 15.4113 29.9082 15.4833 29.6995C15.5552 29.4909 15.703 29.3195 15.8499 29.1553C16.3573 28.588 17.1995 26.3194 17.7319 25.7754C17.7305 25.7754 18.9316 27.8634 19.2528 28.1108Z" fill="#FFAEB3"/>
    <path d="M15.0343 27.195C14.609 27.1703 14.1993 27.0701 13.7792 27.0088C13.4222 26.9572 13.046 26.9693 12.7289 27.1569C12.3862 27.3592 12.3705 27.6204 12.2511 27.9504C12.1865 28.1315 12.156 28.323 12.1613 28.5152C12.1638 28.6119 12.326 28.7783 12.326 28.7783C12.326 28.7783 12.2508 29.0353 12.2969 29.1452C12.4177 29.4383 12.6219 29.6894 12.8843 29.8673C13.5557 30.3119 14.4857 30.193 15.1664 29.7627C15.8471 29.3324 16.3221 28.6468 16.7225 27.9468C16.7738 27.8568 17.8115 25.8759 17.778 25.7776C17.2903 25.805 16.1645 27.1687 15.6769 27.1958C15.4628 27.2076 15.2483 27.2074 15.0343 27.195Z" fill="#FFCECE"/>
    <path d="M16.9196 24.4784C17.134 24.4653 17.2971 24.2809 17.2839 24.0666C17.2708 23.8522 17.0864 23.6891 16.872 23.7023C16.6577 23.7154 16.4946 23.8998 16.5078 24.1142C16.5209 24.3285 16.7053 24.4916 16.9196 24.4784Z" fill="#FFFFD6"/>
    <path d="M15.7359 26.1054C15.9505 26.0977 16.1183 25.9175 16.1105 25.7029C16.1028 25.4883 15.9226 25.3206 15.708 25.3283C15.4934 25.336 15.3257 25.5163 15.3334 25.7309C15.3411 25.9455 15.5213 26.1132 15.7359 26.1054Z" fill="#FFFFD6"/>
    <path d="M15.8597 24.524C15.8266 24.5934 15.8148 24.6711 15.8259 24.7472C15.8369 24.8233 15.8702 24.8944 15.9216 24.9516C15.9731 25.0087 16.0403 25.0493 16.1149 25.0683C16.1894 25.0872 16.2679 25.0837 16.3403 25.058C16.4128 25.0324 16.4761 24.9858 16.5221 24.9242C16.5682 24.8626 16.5949 24.7887 16.5989 24.7119C16.603 24.6351 16.5842 24.5589 16.5449 24.4928C16.5056 24.4267 16.4476 24.3737 16.3782 24.3406C16.2851 24.2962 16.1782 24.2906 16.081 24.325C15.9838 24.3594 15.9042 24.431 15.8597 24.524Z" fill="#FFFFE5"/>
    <path d="M16.1871 26.3382C16.154 26.4076 16.1422 26.4852 16.1532 26.5613C16.1643 26.6374 16.1976 26.7085 16.249 26.7656C16.3005 26.8228 16.3677 26.8634 16.4422 26.8823C16.5167 26.9013 16.5952 26.8977 16.6676 26.8721C16.7401 26.8465 16.8034 26.7999 16.8494 26.7383C16.8955 26.6768 16.9222 26.6029 16.9263 26.5261C16.9304 26.4494 16.9116 26.3731 16.8723 26.307C16.8331 26.2409 16.7751 26.1879 16.7058 26.1547C16.6597 26.1327 16.6097 26.12 16.5586 26.1172C16.5076 26.1145 16.4566 26.1219 16.4084 26.1389C16.3602 26.156 16.3159 26.1823 16.2779 26.2165C16.2399 26.2507 16.209 26.292 16.1871 26.3382Z" fill="#FFFFE5"/>
    <path d="M18.0771 25.5756C18.1657 25.38 18.079 25.1496 17.8834 25.061C17.6878 24.9724 17.4574 25.0591 17.3688 25.2547C17.2802 25.4503 17.3669 25.6807 17.5625 25.7693C17.7581 25.8579 17.9885 25.7712 18.0771 25.5756Z" fill="#FFFFD6"/>
    <path d="M17.7278 24.2224C17.6947 24.2918 17.6829 24.3695 17.6939 24.4456C17.705 24.5217 17.7383 24.5928 17.7897 24.6499C17.8412 24.7071 17.9084 24.7477 17.9829 24.7666C18.0574 24.7856 18.1359 24.782 18.2084 24.7564C18.2808 24.7307 18.3441 24.6842 18.3901 24.6226C18.4362 24.561 18.4629 24.4872 18.467 24.4104C18.4711 24.3336 18.4523 24.2574 18.4131 24.1913C18.3738 24.1252 18.3158 24.0722 18.2465 24.039C18.2004 24.017 18.1504 24.0042 18.0994 24.0015C18.0483 23.9988 17.9973 24.0062 17.9491 24.0232C17.9009 24.0403 17.8566 24.0666 17.8186 24.1008C17.7806 24.135 17.7498 24.1763 17.7278 24.2224Z" fill="#FFFFE5"/>
    <path d="M17.1122 25.6449C17.2295 25.465 17.1787 25.2241 16.9988 25.1069C16.8188 24.9897 16.578 25.0405 16.4607 25.2204C16.3435 25.4003 16.3943 25.6412 16.5742 25.7584C16.7541 25.8757 16.995 25.8249 17.1122 25.6449Z" fill="#FFFFD6"/>
    <path d="M12.7289 33.7647C12.5433 33.1966 7.16597 33.0571 7.1742 35.6616C7.17585 36.1753 7.82169 36.9576 8.31869 37.0894C8.15092 37.1861 8.30304 37.4019 8.38624 37.5771C8.475 37.7608 8.60258 37.9231 8.76016 38.0527C8.91775 38.1823 9.10158 38.2762 9.29898 38.3278C10.0376 38.5156 10.7894 38.0768 11.3548 37.5656C11.8093 37.1537 12.2225 36.6594 12.3708 36.0657L12.7289 33.7647Z" fill="#FFCCCE"/>
    <path d="M12.6918 33.7134C12.822 33.5959 13.612 34.3449 13.7188 34.4822C14.2135 35.1267 14.6318 35.8265 14.9651 36.5675C15.2526 37.2062 15.4772 37.9371 15.2433 38.5972C15.0571 39.1225 14.6117 39.5102 14.1534 39.829C13.8739 40.024 13.6023 39.756 13.3176 39.7664C13.104 39.7744 12.8755 40.0959 12.6712 40.0243C12.0586 39.8095 11.5119 39.2843 11.1728 38.7301C10.9388 38.3474 10.7636 37.9149 10.7609 37.467C10.7568 36.719 11.2063 36.1624 11.5981 35.5724C11.9559 35.0372 12.2225 34.1385 12.6918 33.7134Z" fill="#FFBFC2"/>
    <path d="M9.61064 33.5618C8.82504 33.3531 8.07101 32.9176 7.63359 32.2331C7.38481 31.8443 7.2456 31.3758 7.29997 30.9175C7.35433 30.4592 8.12071 29.8581 8.12071 29.8581C8.23906 29.6132 8.37691 29.3705 8.58285 29.1923C9.3992 28.486 10.807 28.9806 11.5978 29.4745C12.2791 29.8996 12.6413 30.6039 12.7802 31.3769C12.8502 31.7685 12.8008 33.8087 12.8008 33.8087C12.8008 33.8087 11.9705 33.9325 11.577 33.8825C10.9223 33.7985 10.2493 33.7304 9.61064 33.5618Z" fill="#FFBFC2"/>
    <path d="M12.7094 30.242C12.9087 29.4413 13.7605 28.9764 14.5178 29.0722C15.2751 29.1681 16.028 29.6011 16.4218 30.329C17.5476 32.4019 16.3367 33.4083 15.5088 33.6516C14.6809 33.8949 13.3426 34.0574 12.5042 33.8754L12.7094 30.242Z" fill="#FFB8BF"/>
    <path d="M12.4389 33.8767C12.4708 33.8193 12.5509 33.7644 12.7055 33.6671C13.3994 33.2303 14.2202 33.0422 15.0173 32.8983C15.6409 32.7854 16.6794 32.4381 17.2964 32.6589C17.7253 32.8129 17.9911 33.2962 18.1734 33.6877C18.3006 33.9623 18.325 34.2899 18.1567 34.5574C18.0405 34.7419 17.8406 34.8885 17.7684 35.0881C17.699 35.2804 17.7621 35.4833 17.7959 35.6791C17.8964 36.2442 17.4164 38.1737 15.5992 38.074C14.235 37.9991 13.358 36.1266 12.8659 35.0725C12.7497 34.8199 12.392 33.9618 12.4389 33.8767Z" fill="#FFCCCE"/>
    <path d="M11.6292 33.5691C11.8292 33.4912 11.9283 33.2658 11.8503 33.0657C11.7724 32.8656 11.547 32.7665 11.3469 32.8445C11.1468 32.9224 11.0478 33.1478 11.1257 33.3479C11.2037 33.548 11.4291 33.647 11.6292 33.5691Z" fill="#FFFFE5"/>
    <path d="M11.4458 34.5418C11.4998 34.334 11.375 34.1217 11.1672 34.0677C10.9594 34.0138 10.7471 34.1385 10.6931 34.3463C10.6391 34.5542 10.7639 34.7664 10.9717 34.8204C11.1795 34.8744 11.3918 34.7497 11.4458 34.5418Z" fill="#FFFFD6"/>
    <path d="M11.848 35.081C11.8443 35.1579 11.8635 35.2341 11.9032 35.3001C11.9429 35.3661 12.0012 35.4188 12.0708 35.4516C12.1405 35.4843 12.2183 35.4958 12.2944 35.4843C12.3705 35.4729 12.4415 35.4392 12.4984 35.3874C12.5554 35.3356 12.5957 35.2681 12.6142 35.1934C12.6328 35.1187 12.6288 35.0402 12.6027 34.9678C12.5767 34.8953 12.5297 34.8323 12.4678 34.7866C12.4059 34.7408 12.3318 34.7145 12.2549 34.7109C12.1519 34.706 12.0511 34.7423 11.9748 34.8117C11.8985 34.8811 11.8529 34.978 11.848 35.081Z" fill="#FFFFE5"/>
    <path d="M12.4668 34.268C12.6038 34.1026 12.5808 33.8575 12.4154 33.7205C12.25 33.5835 12.0049 33.6065 11.8679 33.7719C11.7309 33.9372 11.7539 34.1823 11.9193 34.3193C12.0847 34.4563 12.3298 34.4333 12.4668 34.268Z" fill="#FFFFD6"/>
    <path d="M12.3986 32.8793C12.594 32.7903 12.6804 32.5598 12.5914 32.3643C12.5025 32.1689 12.2719 32.0825 12.0765 32.1715C11.881 32.2604 11.7947 32.491 11.8836 32.6864C11.9726 32.8819 12.2031 32.9682 12.3986 32.8793Z" fill="#FFFFD6"/>
    <path d="M7.99413 42.6313C7.80879 42.0634 2.4315 41.9236 2.43974 44.5281C2.44138 45.0422 3.08694 45.8242 3.58423 45.956C3.41618 46.0527 3.56857 46.2685 3.6515 46.4437C3.74037 46.6274 3.86801 46.7896 4.02563 46.9192C4.18325 47.0488 4.3671 47.1427 4.56451 47.1944C5.30288 47.3822 6.05498 46.9434 6.62009 46.4321C7.07481 46.0202 7.48806 45.526 7.63607 44.9321L7.99413 42.6313Z" fill="#FFCCCE"/>
    <path d="M7.95704 42.5798C8.08719 42.4623 8.87719 43.2114 8.984 43.3487C9.479 43.9928 9.89761 44.6922 10.2315 45.4328C10.5192 46.0715 10.7436 46.8025 10.5096 47.4626C10.3235 47.9879 9.87807 48.3753 9.42005 48.6944C9.14024 48.8894 8.86895 48.6211 8.5842 48.6315C8.37057 48.6395 8.14184 48.961 7.93782 48.8896C7.32493 48.6749 6.77823 48.1482 6.43938 47.5955C6.20516 47.2127 6.02997 46.7802 6.0275 46.3324C6.0231 45.5847 6.47261 45.0281 6.86472 44.4394C7.22169 43.9039 7.48776 43.0038 7.95704 42.5798Z" fill="#FFBFC2"/>
    <path d="M4.87591 42.4271C4.09058 42.2184 3.33656 41.7829 2.89886 41.0984C2.65008 40.7098 2.51087 40.2411 2.56551 39.7831C2.62015 39.3251 3.38543 38.724 3.38543 38.724C3.50378 38.4791 3.6419 38.2363 3.84757 38.0581C4.66392 37.3516 6.07174 37.8464 6.86284 38.3401C7.54382 38.7655 7.90628 39.4698 8.04522 40.2428C8.11524 40.6341 8.06554 42.6742 8.06554 42.6742C8.06554 42.6742 7.23545 42.7981 6.84197 42.7484C6.18762 42.6649 5.51488 42.5957 4.87591 42.4271Z" fill="#FFBFC2"/>
    <path d="M7.97489 39.1084C8.17397 38.3077 9.02602 37.8428 9.78334 37.9384C10.5407 38.0339 11.2922 38.4672 11.6871 39.1955C12.8129 41.2681 11.6022 42.2747 10.7743 42.518C9.94645 42.7613 8.60782 42.9252 7.77087 42.7421L7.97489 39.1084Z" fill="#FFB8BF"/>
    <path d="M7.70472 42.7435C7.73657 42.6861 7.81675 42.6312 7.97135 42.534C8.66551 42.0968 9.48626 41.909 10.2834 41.7651C10.9067 41.6523 11.9455 41.3046 12.5611 41.5257C12.9903 41.6794 13.2561 42.1627 13.4382 42.5543C13.5656 42.8289 13.5897 43.1565 13.4214 43.4242C13.3055 43.6087 13.1056 43.7537 13.0334 43.9547C12.9637 44.1469 13.0271 44.3498 13.0609 44.5459C13.1611 45.1107 12.6814 47.0405 10.8641 46.9408C9.49971 46.8659 8.62268 44.9935 8.13061 43.939C8.01528 43.6864 7.65722 42.8286 7.70472 42.7435Z" fill="#FFCCCE"/>
    <path d="M6.36472 42.0552C6.36111 42.132 6.38036 42.2081 6.42002 42.274C6.45969 42.3398 6.51799 42.3925 6.58756 42.4252C6.65713 42.4579 6.73485 42.4693 6.81088 42.4579C6.88691 42.4465 6.95785 42.4128 7.01473 42.361C7.07161 42.3093 7.11187 42.2418 7.13043 42.1672C7.14899 42.0926 7.14501 42.0142 7.11899 41.9418C7.09298 41.8695 7.04609 41.8065 6.98427 41.7607C6.92245 41.715 6.84846 41.6887 6.77166 41.685C6.72063 41.6826 6.66962 41.6902 6.62154 41.7075C6.57347 41.7248 6.52927 41.7514 6.49148 41.7858C6.45369 41.8201 6.42304 41.8616 6.40129 41.9078C6.37954 41.9541 6.36711 42.0041 6.36472 42.0552Z" fill="#FFFFE5"/>
    <path d="M5.9465 43.2932C5.9429 43.37 5.96215 43.4461 6.00181 43.512C6.04148 43.5779 6.09978 43.6305 6.16935 43.6632C6.23892 43.696 6.31663 43.7074 6.39267 43.6959C6.4687 43.6845 6.53964 43.6508 6.59652 43.5991C6.6534 43.5473 6.69366 43.4799 6.71222 43.4053C6.73078 43.3307 6.72679 43.2522 6.70078 43.1799C6.67476 43.1075 6.62788 43.0445 6.56606 42.9988C6.50423 42.9531 6.43024 42.9267 6.35344 42.9231C6.30242 42.9206 6.25141 42.9283 6.20333 42.9455C6.15526 42.9628 6.11106 42.9894 6.07327 43.0238C6.03548 43.0582 6.00483 43.0997 5.98308 43.1459C5.96133 43.1921 5.9489 43.2422 5.9465 43.2932Z" fill="#FFFFD6"/>
    <path d="M7.11351 43.948C7.10985 44.0248 7.12907 44.1011 7.16874 44.167C7.20841 44.233 7.26675 44.2857 7.33637 44.3185C7.406 44.3513 7.48379 44.3627 7.55991 44.3513C7.63602 44.3398 7.70704 44.3061 7.76397 44.2543C7.82091 44.2025 7.8612 44.135 7.87977 44.0603C7.89833 43.9856 7.89433 43.9071 7.86826 43.8347C7.84219 43.7623 7.79523 43.6992 7.73332 43.6535C7.67141 43.6078 7.59733 43.5814 7.52045 43.5778C7.41741 43.573 7.31666 43.6092 7.24035 43.6787C7.16404 43.7481 7.11842 43.8449 7.11351 43.948Z" fill="#FFFFE5"/>
    <path d="M7.73435 43.1312C7.87018 42.9649 7.84548 42.7199 7.67916 42.5841C7.51285 42.4483 7.2679 42.473 7.13206 42.6393C6.99623 42.8056 7.02093 43.0505 7.18725 43.1864C7.35357 43.3222 7.59851 43.2975 7.73435 43.1312Z" fill="#FFFFD6"/>
    <path d="M7.51544 41.7797C7.73004 41.772 7.89781 41.5919 7.89017 41.3772C7.88252 41.1626 7.70236 40.9949 7.48775 41.0025C7.27315 41.0102 7.10538 41.1903 7.11302 41.4049C7.12067 41.6195 7.30083 41.7873 7.51544 41.7797Z" fill="#FFFFD6"/>
    <path d="M22.1558 34.1031C22.0355 34.2215 20.6049 33.0517 20.033 31.7576C19.3361 30.1809 21.061 28.3801 21.061 28.3801C21.061 28.3801 21.8241 28.1681 22.0715 28.435L22.1358 28.4721C22.5114 28.2151 23.0293 28.3074 23.4239 28.527C23.836 28.7562 24.1702 29.1033 24.3836 29.5238C24.6461 30.0455 25.9803 32.8419 22.1558 34.1031Z" fill="#FFB8BF"/>
    <path d="M22.1558 34.1031C22.0062 34.0251 22.6775 32.3031 23.7306 31.3591C25.0146 30.2091 27.2604 31.2932 27.2604 31.2932C27.2604 31.2932 27.6979 31.9522 27.5194 32.2715L27.504 32.344C27.8643 32.6222 27.937 33.1431 27.8511 33.5857C27.7603 34.0484 27.5333 34.4733 27.1992 34.806C26.7843 35.2173 24.5371 37.3512 22.1558 34.1031Z" fill="#FFCECE"/>
    <path d="M22.1558 34.103C22.1833 33.9366 24.0282 34.0418 25.2518 34.7527C26.7425 35.6188 26.4051 38.0893 26.4051 38.0893C26.4051 38.0893 25.9108 38.7096 25.5538 38.6384L25.4803 38.6461C25.327 39.0748 24.8542 39.3051 24.4066 39.3601C23.9386 39.4166 23.4643 39.3321 23.0446 39.1173C22.5262 38.8493 19.8031 37.3712 22.1558 34.103Z" fill="#FFB8BF"/>
    <path d="M22.1558 34.103C22.3227 34.078 22.7926 35.8651 22.4946 37.2484C22.1316 38.9333 19.6776 39.3765 19.6776 39.3765C19.6776 39.3765 18.9362 39.0992 18.8931 38.7373L18.8643 38.6692C18.4093 38.656 18.0444 38.2773 17.8538 37.8687C17.6554 37.441 17.5892 36.9638 17.6638 36.4983C17.7563 35.9233 18.3206 32.8753 22.1558 34.103Z" fill="#FFBFC2"/>
    <path d="M22.1558 34.1031C22.231 34.2538 20.6769 35.2531 19.2691 35.3972C17.5542 35.5727 16.3746 33.376 16.3746 33.376C16.3746 33.376 16.4089 32.5843 16.7401 32.4319L16.795 32.3825C16.6676 31.9456 16.9147 31.4816 17.2442 31.1729C17.5896 30.852 18.0231 30.6416 18.4889 30.5688C19.0664 30.481 22.1382 30.0762 22.1558 34.1031Z" fill="#FFCECE"/>
    <path d="M22.5328 34.6296C22.5292 34.7065 22.5484 34.7827 22.588 34.8487C22.6277 34.9146 22.6861 34.9673 22.7557 35.0001C22.8253 35.0329 22.9031 35.0443 22.9792 35.0329C23.0553 35.0215 23.1263 34.9877 23.1833 34.936C23.2402 34.8842 23.2805 34.8167 23.2991 34.742C23.3176 34.6673 23.3136 34.5888 23.2876 34.5163C23.2615 34.4439 23.2145 34.3809 23.1526 34.3351C23.0907 34.2894 23.0166 34.2631 22.9398 34.2595C22.8367 34.2546 22.736 34.2909 22.6597 34.3603C22.5834 34.4297 22.5377 34.5266 22.5328 34.6296Z" fill="#FFFFE5"/>
    <path d="M23.7142 33.6964C23.7402 33.4833 23.5885 33.2894 23.3753 33.2634C23.1621 33.2374 22.9683 33.3892 22.9423 33.6023C22.9163 33.8155 23.068 34.0093 23.2812 34.0353C23.4944 34.0613 23.6882 33.9096 23.7142 33.6964Z" fill="#FFFFD6"/>
    <path d="M21.3905 32.1792C21.3869 32.256 21.4061 32.3323 21.4457 32.3982C21.4854 32.4642 21.5438 32.5169 21.6134 32.5497C21.683 32.5825 21.7608 32.5939 21.8369 32.5825C21.913 32.571 21.984 32.5373 22.041 32.4855C22.0979 32.4337 22.1382 32.3662 22.1568 32.2915C22.1753 32.2168 22.1713 32.1383 22.1453 32.0659C22.1192 31.9935 22.0722 31.9304 22.0103 31.8847C21.9484 31.839 21.8743 31.8126 21.7975 31.809C21.6944 31.8042 21.5937 31.8404 21.5174 31.9099C21.4411 31.9793 21.3954 32.0761 21.3905 32.1792Z" fill="#FFFFE5"/>
    <path d="M21.0371 33.3312C21.2517 33.3235 21.4195 33.1434 21.4119 32.9288C21.4042 32.7142 21.2241 32.5464 21.0095 32.554C20.7949 32.5617 20.6271 32.7418 20.6347 32.9564C20.6424 33.171 20.8225 33.3388 21.0371 33.3312Z" fill="#FFFFD6"/>
    <path d="M21.3746 35.0539C21.371 35.1307 21.3902 35.2069 21.4299 35.2728C21.4696 35.3386 21.5279 35.3912 21.5974 35.424C21.667 35.4567 21.7447 35.4681 21.8208 35.4567C21.8968 35.4452 21.9677 35.4115 22.0246 35.3598C22.0815 35.3081 22.1218 35.2406 22.1403 35.166C22.1589 35.0914 22.1549 35.013 22.1289 34.9406C22.1029 34.8683 22.056 34.8052 21.9942 34.7595C21.9323 34.7138 21.8583 34.6875 21.7815 34.6838C21.7305 34.6814 21.6795 34.689 21.6314 34.7063C21.5834 34.7236 21.5392 34.7502 21.5014 34.7845C21.4636 34.8189 21.4329 34.8604 21.4112 34.9066C21.3894 34.9529 21.377 35.0029 21.3746 35.0539Z" fill="#FFFFD6"/>
    <path d="M20.6571 33.7617C20.6534 33.8385 20.6726 33.9148 20.7122 33.9808C20.7518 34.0468 20.8101 34.0995 20.8798 34.1324C20.9494 34.1652 21.0272 34.1767 21.1033 34.1653C21.1794 34.1539 21.2505 34.1202 21.3074 34.0684C21.3644 34.0166 21.4047 33.9491 21.4233 33.8744C21.4419 33.7997 21.4379 33.7212 21.4119 33.6487C21.3858 33.5763 21.3389 33.5132 21.2769 33.4675C21.215 33.4218 21.1409 33.3954 21.064 33.3918C20.961 33.3869 20.8603 33.4232 20.784 33.4925C20.7077 33.5619 20.6621 33.6587 20.6571 33.7617Z" fill="#FFFFE5"/>
    <path d="M22.4209 34.0819C22.5579 33.9166 22.5349 33.6715 22.3695 33.5345C22.2042 33.3975 21.9591 33.4205 21.8221 33.5858C21.6851 33.7512 21.7081 33.9963 21.8734 34.1333C22.0388 34.2703 22.2839 34.2473 22.4209 34.0819Z" fill="#FFFFD6"/>
    <path d="M22.6292 32.5974C22.6255 32.6743 22.6448 32.7505 22.6844 32.8165C22.7241 32.8824 22.7824 32.9351 22.8521 32.9679C22.9217 33.0007 22.9995 33.0121 23.0756 33.0007C23.1517 32.9893 23.2227 32.9555 23.2797 32.9037C23.3366 32.8519 23.3769 32.7844 23.3955 32.7097C23.414 32.6351 23.41 32.5565 23.3839 32.4841C23.3579 32.4117 23.3109 32.3486 23.249 32.3029C23.1871 32.2572 23.113 32.2309 23.0361 32.2272C22.9331 32.2224 22.8323 32.2587 22.756 32.3281C22.6797 32.3975 22.6341 32.4943 22.6292 32.5974Z" fill="#FFFFE5"/>
    <path d="M34.4926 16.7597C34.3901 16.8605 33.1696 15.8629 32.6803 14.7588C32.0858 13.4133 33.5573 11.8775 33.5573 11.8775C33.5573 11.8775 34.2084 11.6966 34.4193 11.9253L34.4742 11.9569C34.7946 11.7372 35.2364 11.816 35.5725 12.0027C35.924 12.1986 36.2088 12.495 36.3905 12.8539C36.6171 13.2971 37.7561 15.6839 34.4926 16.7597Z" fill="#FFB8BF"/>
    <path d="M34.4926 16.7597C34.3649 16.6932 34.9366 15.2242 35.8361 14.4188C36.9315 13.438 38.8473 14.3625 38.8473 14.3625C38.8473 14.3625 39.2205 14.926 39.067 15.1972L39.0538 15.259C39.361 15.4963 39.4231 15.9406 39.3498 16.3184C39.2722 16.713 39.0786 17.0755 38.7937 17.3594C38.4425 17.7103 36.524 19.5303 34.4926 16.7597Z" fill="#FFCECE"/>
    <path d="M34.4926 16.7597C34.5165 16.6177 36.0901 16.7075 37.1338 17.3138C38.4055 18.0527 38.118 20.1602 38.118 20.1602C38.118 20.1602 37.6976 20.6893 37.3925 20.627L37.3296 20.6336C37.1989 20.9993 36.7955 21.1957 36.4136 21.2426C36.0143 21.2908 35.6098 21.2186 35.2518 21.0353C34.8086 20.8085 32.4856 19.5476 34.4926 16.7597Z" fill="#FFB8BF"/>
    <path d="M34.4926 16.7597C34.6351 16.7383 35.0357 18.2628 34.7817 19.443C34.472 20.8805 32.3785 21.2583 32.3785 21.2583C32.3785 21.2583 31.7456 21.0219 31.7093 20.713L31.6835 20.6553C31.2952 20.6441 30.9841 20.3209 30.8213 19.9724C30.652 19.6075 30.5957 19.2004 30.6596 18.8032C30.7395 18.3114 31.2208 15.7135 34.4926 16.7597Z" fill="#FFBFC2"/>
    <path d="M34.4926 16.7598C34.5568 16.8885 33.2295 17.7409 32.0301 17.8636C30.567 18.0135 29.5607 16.1395 29.5607 16.1395C29.5607 16.1395 29.59 15.4642 29.8726 15.3341L29.9196 15.2918C29.8097 14.9192 30.0214 14.523 30.304 14.261C30.5986 13.9872 30.9684 13.8077 31.3658 13.7456C31.8571 13.6695 34.4775 13.3246 34.4926 16.7598Z" fill="#FFCECE"/>
    <path d="M34.8144 17.209C34.8113 17.2745 34.8277 17.3395 34.8616 17.3957C34.8954 17.4519 34.9452 17.4968 35.0045 17.5247C35.0639 17.5526 35.1302 17.5623 35.195 17.5526C35.2599 17.5428 35.3204 17.514 35.369 17.4699C35.4175 17.4257 35.4518 17.3682 35.4676 17.3045C35.4835 17.2409 35.4801 17.174 35.4578 17.1122C35.4356 17.0505 35.3956 16.9968 35.3429 16.9578C35.2901 16.9188 35.227 16.8963 35.1615 16.8932C35.1179 16.8911 35.0744 16.8976 35.0334 16.9123C34.9924 16.9271 34.9547 16.9498 34.9224 16.9791C34.8902 17.0084 34.8641 17.0438 34.8455 17.0833C34.827 17.1227 34.8164 17.1654 34.8144 17.209Z" fill="#FFFFE5"/>
    <path d="M35.7918 16.5197C35.8727 16.3553 35.8049 16.1565 35.6405 16.0757C35.4761 15.9948 35.2773 16.0626 35.1965 16.227C35.1157 16.3914 35.1834 16.5902 35.3478 16.671C35.5122 16.7518 35.711 16.6841 35.7918 16.5197Z" fill="#FFFFD6"/>
    <path d="M33.8401 15.1184C33.837 15.1839 33.8535 15.2489 33.8873 15.305C33.9211 15.3612 33.9709 15.4061 34.0302 15.4341C34.0895 15.462 34.1558 15.4717 34.2207 15.462C34.2855 15.4522 34.3461 15.4235 34.3946 15.3794C34.4431 15.3353 34.4775 15.2777 34.4933 15.2141C34.5092 15.1505 34.5058 15.0836 34.4836 15.0218C34.4615 14.9601 34.4215 14.9063 34.3688 14.8673C34.3161 14.8283 34.253 14.8058 34.1875 14.8026C34.0995 14.7984 34.0135 14.8294 33.9484 14.8886C33.8833 14.9478 33.8443 15.0305 33.8401 15.1184Z" fill="#FFFFE5"/>
    <path d="M33.1979 15.7521C33.1948 15.8177 33.2111 15.8827 33.2449 15.9389C33.2787 15.9951 33.3285 16.0401 33.3878 16.068C33.4472 16.096 33.5135 16.1057 33.5784 16.096C33.6432 16.0863 33.7038 16.0576 33.7523 16.0134C33.8009 15.9693 33.8353 15.9118 33.8511 15.8481C33.8669 15.7844 33.8636 15.7175 33.8414 15.6557C33.8192 15.594 33.7792 15.5402 33.7264 15.5012C33.6736 15.4622 33.6105 15.4398 33.545 15.4366C33.4571 15.4325 33.3712 15.4635 33.3062 15.5226C33.2411 15.5818 33.2022 15.6643 33.1979 15.7521Z" fill="#FFFFD6"/>
    <path d="M33.8261 17.5708C33.8231 17.6363 33.8395 17.7013 33.8733 17.7575C33.9072 17.8137 33.9569 17.8586 34.0163 17.8865C34.0756 17.9144 34.1419 17.9241 34.2068 17.9144C34.2717 17.9046 34.3322 17.8759 34.3807 17.8317C34.4292 17.7876 34.4636 17.73 34.4794 17.6664C34.4952 17.6027 34.4918 17.5358 34.4696 17.4741C34.4474 17.4123 34.4074 17.3586 34.3546 17.3196C34.3019 17.2806 34.2387 17.2581 34.1732 17.255C34.1297 17.2529 34.0862 17.2594 34.0451 17.2742C34.0041 17.2889 33.9664 17.3116 33.9342 17.3409C33.9019 17.3702 33.8758 17.4057 33.8573 17.4451C33.8387 17.4845 33.8281 17.5273 33.8261 17.5708Z" fill="#FFFFD6"/>
    <path d="M33.2141 16.4687C33.211 16.5343 33.2274 16.5992 33.2613 16.6554C33.2951 16.7116 33.3449 16.7565 33.4042 16.7844C33.4636 16.8124 33.5299 16.8221 33.5947 16.8123C33.6596 16.8026 33.7201 16.7738 33.7686 16.7296C33.8172 16.6855 33.8515 16.628 33.8673 16.5643C33.8832 16.5006 33.8797 16.4337 33.8575 16.372C33.8353 16.3103 33.7953 16.2565 33.7426 16.2175C33.6898 16.1785 33.6267 16.1561 33.5612 16.153C33.5176 16.1509 33.4741 16.1574 33.4331 16.1722C33.3921 16.1869 33.3544 16.2096 33.3222 16.2389C33.29 16.2683 33.2638 16.3037 33.2453 16.3431C33.2267 16.3825 33.2161 16.4252 33.2141 16.4687Z" fill="#FFFFE5"/>
    <path d="M34.1315 16.5119C34.1284 16.5774 34.1447 16.6424 34.1785 16.6986C34.2123 16.7548 34.262 16.7998 34.3214 16.8278C34.3807 16.8557 34.447 16.8655 34.5119 16.8558C34.5767 16.8461 34.6373 16.8174 34.6858 16.7733C34.7344 16.7292 34.7688 16.6716 34.7846 16.608C34.8005 16.5444 34.7972 16.4774 34.775 16.4157C34.7529 16.354 34.7129 16.3002 34.6602 16.2611C34.6075 16.2221 34.5444 16.1996 34.4788 16.1964C34.391 16.1923 34.3051 16.2232 34.2399 16.2824C34.1748 16.3415 34.1358 16.4241 34.1315 16.5119Z" fill="#FFFFD6"/>
    <path d="M34.8965 15.4751C34.8934 15.5406 34.9098 15.6056 34.9437 15.6617C34.9775 15.7179 35.0272 15.7628 35.0866 15.7907C35.1459 15.8187 35.2122 15.8284 35.277 15.8187C35.3419 15.8089 35.4024 15.7802 35.451 15.7361C35.4995 15.692 35.5338 15.6344 35.5497 15.5708C35.5655 15.5072 35.5622 15.4402 35.54 15.3785C35.5178 15.3168 35.4779 15.263 35.4252 15.224C35.3724 15.185 35.3093 15.1625 35.2438 15.1593C35.1559 15.1551 35.0699 15.1861 35.0048 15.2453C34.9396 15.3045 34.9007 15.3872 34.8965 15.4751Z" fill="#FFFFE5"/>
    <path d="M17.4595 7.12982C17.1676 7.1846 17.0599 7.34015 16.9646 7.66678C16.7678 8.34131 16.9441 9.11619 17.1215 9.63681C17.4309 10.5448 18.3633 10.814 19.2263 10.8918C19.3979 10.9072 19.5808 10.9106 19.7664 10.8219C19.9519 10.7332 20.1401 10.528 20.1746 10.3136C20.1746 10.3136 20.4726 10.064 20.5216 9.91275C20.5705 9.76149 20.5699 9.61371 20.5605 9.47431C20.5116 8.74582 20.2525 8.11769 19.8392 7.67884C19.6484 7.47628 19.4106 7.2684 19.1408 7.18828C18.6599 7.04274 18.019 7.02557 17.4595 7.12982Z" fill="#FFCECE"/>
    <path d="M20.0457 48.258C20.031 48.3749 18.6317 48.2212 17.6776 47.666C16.5154 46.9898 16.6709 45.2556 16.6709 45.2556C16.6709 45.2556 17.0188 44.8379 17.2921 44.9036L17.3477 44.9014C17.4461 44.6045 17.7946 44.462 18.131 44.442C18.4827 44.422 18.8448 44.5021 19.1708 44.672C19.5747 44.8834 21.6938 46.0455 20.0457 48.258Z" fill="#FFCECE"/>
    <path d="M128.558 46.1438C128.438 46.2596 126.876 45.2252 126.213 44.0345C125.402 42.584 127.123 40.8148 127.123 40.8148C127.123 40.8148 127.914 40.5815 128.187 40.8223L128.256 40.8542C128.638 40.5962 129.187 40.6593 129.612 40.8472C130.055 41.0445 130.423 41.3559 130.668 41.7415C130.97 42.2198 132.51 44.7884 128.558 46.1438Z" fill="#FFB8BF"/>
    <path d="M170.802 23.1324C170.646 23.0681 171.244 21.4723 172.271 20.5679C173.521 19.4651 175.854 20.3531 175.854 20.3531C175.854 20.3531 176.331 20.9353 176.165 21.2323L176.153 21.2989C176.532 21.5363 176.631 22.007 176.565 22.4135C176.495 22.8384 176.285 23.2348 175.962 23.5519C175.561 23.9453 173.379 25.9832 170.802 23.1324Z" fill="#FFAEB3"/>
    <path d="M82.2054 21.1583C82.2752 21.0709 81.2963 20.2876 80.3232 20.0564C79.139 19.7746 78.0652 21.0372 78.0652 21.0372C78.0652 21.0372 78.0009 21.5379 78.2164 21.6669L78.2497 21.7034C78.1109 21.9652 78.2328 22.2815 78.4299 22.5078C78.6365 22.7441 78.9173 22.9197 79.2363 23.0119C79.6317 23.1256 81.7431 23.6866 82.2054 21.1583Z" fill="#FFCECE"/>
    <path d="M104.966 18.9884C104.017 20.8992 101.993 22.7521 99.4454 22.231C98.9327 22.1256 98.3357 21.6809 98.5252 21.1355C98.5789 20.982 99.0576 20.5205 98.9111 20.5755C98.1135 20.874 97.4779 19.7394 100.004 17.8831C100.525 17.5004 101.25 17.2132 101.938 17.2577C102.394 17.2867 102.83 17.5209 103.207 17.7357C103.841 18.0967 104.43 18.5166 104.966 18.9884Z" fill="#FFAEB3"/>
    <path d="M95.3757 1.33747C94.6442 2.81022 93.0844 4.23835 91.1206 3.83669C90.7255 3.75546 90.2653 3.41271 90.4114 2.99231C90.4528 2.87404 90.8217 2.51835 90.7088 2.56075C90.094 2.79081 89.6042 1.91631 91.5514 0.485512C91.9528 0.190515 92.5115 -0.0308434 93.0417 0.00352072C93.3935 0.0258351 93.7293 0.206358 94.0197 0.371931C94.5084 0.650121 94.9629 0.973766 95.3757 1.33747Z" fill="#FFCBCD"/>
    <path d="M138.648 7.28354C138.802 7.1909 139.401 8.35995 139.46 8.47054C139.822 9.14973 140.171 9.8877 140.298 10.637C140.407 11.2762 140.133 11.9122 139.724 12.4282C139.378 12.8653 138.883 13.3972 138.29 13.552C137.74 13.6968 137.02 13.4125 136.974 12.9003L136.627 13.0361C136.203 13.253 135.725 12.9817 135.527 12.6308C135.22 12.0888 135.427 11.295 135.596 10.738C136.043 9.25569 137.472 8.31362 138.648 7.28354Z" fill="#FFCECE"/>
    <path d="M156.652 20.6141C156.766 21.2898 156.588 22.2391 156.25 22.7907C155.913 23.3422 155.432 23.7556 154.918 24.0775C154.508 24.3343 154.066 24.5407 153.599 24.6033C152.685 24.7269 151.776 24.3019 150.914 23.8859C150.834 23.8471 150.752 23.8065 150.688 23.7362C150.475 23.4968 150.604 23.0943 150.744 22.8031L150.849 22.6222C150.722 22.6497 150.611 22.4794 150.619 22.3297C150.628 22.1801 150.714 22.0562 150.796 21.9427C151.078 21.553 151.363 21.161 151.714 20.8553C152.065 20.5495 152.494 20.337 152.941 20.3567L156.652 20.6141Z" fill="#FFCECE"/>
    <path d="M74.2002 34.4712C73.7836 34.6672 73.6928 34.9228 73.7005 35.4046C73.717 36.4005 74.3445 37.375 74.8559 38.0058C75.7473 39.106 77.2846 39.0808 78.6279 38.826C78.895 38.7751 79.1735 38.7035 79.4132 38.5058C79.6528 38.3081 79.8421 37.952 79.7958 37.6471C79.7958 37.6471 80.1309 37.1839 80.1357 36.9595C80.1406 36.7352 80.0711 36.5345 79.9905 36.3495C79.5772 35.384 78.8908 34.6414 78.0621 34.2205C77.6789 34.0259 77.2212 33.8441 76.7755 33.8467C75.9776 33.8522 74.9988 34.0963 74.2002 34.4712Z" fill="#FFB8BF"/>
    <path d="M174.602 37.0692C174.624 36.8852 176.652 36.9047 178.031 37.6199C179.71 38.4944 179.469 41.2237 179.469 41.2237C179.469 41.2237 178.961 41.9304 178.565 41.8715L178.484 41.8835C178.339 42.3622 177.832 42.6395 177.344 42.7234C176.834 42.8103 176.31 42.7426 175.838 42.529C175.255 42.2621 172.192 40.7809 174.602 37.0692Z" fill="#FFB8BF"/>
    </svg>
    